<svg width="104" height="109" viewBox="0 0 104 109" fill="none" xmlns="http://www.w3.org/2000/svg">
<path d="M22.2617 67.6974C21.9921 68.6154 22.0195 69.3849 22.0781 70.3459C22.1406 71.3888 22.1445 72.4592 22.539 73.4435C22.5976 73.5842 22.8085 73.6115 22.8554 73.4435C23.0976 72.5685 23.0429 71.6818 22.9921 70.7795C22.9296 69.674 22.914 68.7209 22.4804 67.6974C22.4374 67.5959 22.2968 67.5763 22.2617 67.6974Z" fill="#231F20"/>
<path d="M23.6952 68.1349C23.746 69.0881 23.8124 70.0216 23.9374 70.967C24.0467 71.8029 24.0702 72.7638 24.4881 73.4982C24.5702 73.6466 24.8202 73.6232 24.8592 73.4513C25.0155 72.7248 24.8085 72.0099 24.703 71.2756C24.5428 70.1935 24.2889 69.1466 24.0194 68.092C23.9725 67.9123 23.6835 67.9474 23.6952 68.1349Z" fill="#231F20"/>
<path d="M22.0274 68.51C23.6797 75.7053 16.8438 83.0803 13.0625 88.6779C11.0821 91.6115 9.05472 94.5178 7.00784 97.4123C4.7305 100.639 1.68753 103.76 0.0976856 107.377C-0.0663774 107.748 0.339873 108.092 0.664092 107.815C3.70315 105.197 5.75394 101.283 8.05081 98.0217C10.6758 94.299 13.2344 90.5295 15.7578 86.7404C18.9649 81.924 25.7305 74.6311 22.1211 68.4709C22.0938 68.4201 22.0157 68.4514 22.0274 68.51Z" fill="#231F20"/>
<path d="M0.105385 108.209C5.49601 106.752 7.91398 100.565 10.8866 96.2482C13.1015 93.0256 15.203 89.6935 17.9374 86.8849C20.7499 83.9943 24.6796 83.3537 28.0273 81.4279C28.2616 81.2912 28.1796 80.8498 27.8788 80.8849C22.2538 81.5763 17.6249 84.9826 14.2968 89.3967C11.8007 92.7052 9.59367 96.2795 7.25773 99.7092C6.0507 101.483 4.85148 103.264 3.64835 105.041C1.75382 107.842 1.17179 106.256 0.0116354 108.088C-0.0274266 108.151 0.0389794 108.225 0.105385 108.209Z" fill="#231F20"/>
<path d="M22.0703 81.6857C25.4492 78.0842 27.8359 73.5568 30.3828 69.3537C32.5781 65.7287 36.2617 61.2717 35.9765 56.8068C35.9531 56.4709 35.5195 56.424 35.4023 56.7287C32.0273 65.6584 25.6836 72.9123 21.9922 81.6232C21.9687 81.674 22.0273 81.7326 22.0703 81.6857Z" fill="#231F20"/>
<path d="M22.6523 67.9592C19.5351 64.8459 15.8046 62.4709 12.8905 59.1311C8.67178 54.2912 9.6796 48.049 10.2616 42.2014C11.3554 31.174 12.1015 18.2014 8.89444 7.45528C8.81241 7.17403 8.38663 7.22871 8.38663 7.52168C8.35538 13.8147 9.36709 20.1115 9.48819 26.4162C9.621 33.1506 9.06241 39.8225 8.35147 46.51C7.87491 51.0022 8.24991 55.5803 11.1366 59.2561C14.1171 63.049 18.1327 65.9904 22.1249 68.6467C22.5468 68.924 22.9999 68.3029 22.6523 67.9592Z" fill="#231F20"/>
<path d="M9.20304 9.70137C9.06632 8.99825 8.93351 8.29512 8.8007 7.592C8.52335 6.41622 8.8007 5.49434 9.63663 4.83028C9.94523 6.19747 10.3788 7.53341 10.8046 8.86934C11.6718 11.5803 12.9062 14.1701 14.2343 16.6779C17.1327 22.1545 21.5077 26.6076 24.8007 31.8264C31.8085 42.9318 32.6835 58.1545 22.871 67.8967C22.039 68.7209 23.3046 69.9748 24.1484 69.174C32.6718 61.1115 33.8554 49.0607 30.0155 38.3967C28.0663 32.9943 24.6601 28.3967 21.0468 24.01C15.8554 17.717 11.9648 11.2639 9.99601 3.27559C9.92179 2.98653 9.50382 2.93184 9.35929 3.19356C8.13663 5.41231 7.93742 7.43184 8.88273 9.79122C8.96085 9.98262 9.25773 9.91231 9.20304 9.70137Z" fill="#231F20"/>
<path d="M22.9883 68.1154C23.211 68.6584 23.3047 69.2678 23.4063 69.842C23.5235 70.4982 23.4024 71.2131 23.5821 71.8498C23.6328 72.0295 23.9297 72.1037 24.0157 71.9045C24.5586 70.6545 23.8282 69.1076 23.2618 68.0021C23.1875 67.8537 22.9258 67.9592 22.9883 68.1154Z" fill="#231F20"/>
<path d="M22.8555 68.5803C23.082 70.2053 23.3008 71.842 23.6953 73.4318C23.8516 73.342 24.0078 73.2522 24.1602 73.1623C23.7305 72.7951 23.5274 72.3225 23.4492 71.7756C23.4375 71.6936 23.3203 71.7248 23.3125 71.7951C23.25 72.4475 23.4102 72.9357 23.7266 73.4982C23.8906 73.7912 24.2813 73.5803 24.2305 73.2834C23.9688 71.674 23.5274 70.0881 23.0977 68.5139C23.0547 68.3537 22.832 68.424 22.8555 68.5803Z" fill="#231F20"/>
<path d="M22.7148 70.26C22.8632 70.6467 23.0156 71.0295 23.1679 71.4123C23.2929 71.7248 23.375 72.174 23.6914 72.3264C23.7734 72.3654 23.8632 72.3342 23.8906 72.2482C23.9882 71.9396 23.7851 71.6545 23.6562 71.3771C23.4609 70.9553 23.2617 70.5334 23.0664 70.1115C22.9726 69.9123 22.6328 70.0568 22.7148 70.26Z" fill="#231F20"/>
<path d="M24.371 67.3341C24.5116 68.7638 24.4179 70.4787 24.9023 71.8302C24.9882 72.0646 25.2929 72.0138 25.3202 71.7756C25.4765 70.3771 24.9921 68.7209 24.8046 67.3341C24.7694 67.0646 24.3398 67.0529 24.371 67.3341Z" fill="#231F20"/>
<path d="M24.9804 67.7365C24.7772 69.3459 24.7186 70.9709 24.7577 72.5959C24.7655 72.9397 25.2811 72.9397 25.289 72.5959C25.328 70.9709 25.2655 69.3459 25.0624 67.7365C25.0585 67.6857 24.9882 67.6857 24.9804 67.7365Z" fill="#231F20"/>
<path d="M25.2811 72.1818C30.7655 63.2404 37.5741 54.6662 38.6366 43.7717C38.6522 43.6154 38.4218 43.6076 38.3749 43.7365C36.3475 49.299 34.9335 54.8537 32.2655 60.1936C31.0507 62.6271 29.6171 64.9436 28.1327 67.2209C27.0702 68.8498 25.16 70.3615 24.8007 72.2873C24.7811 72.3811 24.8436 72.4904 24.953 72.4865C25.0429 72.4826 25.1327 72.4787 25.2225 72.4748C25.2577 72.4748 25.2772 72.4553 25.2889 72.424C25.3163 72.3576 25.3436 72.2873 25.371 72.2209C25.3905 72.1662 25.3085 72.1389 25.2811 72.1818Z" fill="#231F20"/>
<path d="M38.5077 49.5451C36.789 53.5021 35.6288 57.8459 34.5624 62.0217C34.4413 62.4904 35.1366 62.6779 35.2812 62.2209C36.5976 58.1232 37.9257 53.8303 38.5702 49.5725C38.5781 49.5373 38.5234 49.506 38.5077 49.5451Z" fill="#231F20"/>
<path d="M23.707 66.5022C24.2734 58.8537 22.0664 50.2756 20.5234 42.8225C18.9453 35.2053 17.3438 26.842 13.5274 19.9787C13.3906 19.7365 13.0508 19.9084 13.0977 20.1584C14.6524 27.8889 17.7305 35.3967 19.6524 43.0647C21.5859 50.7795 21.6641 58.8654 23.5664 66.5217C23.5859 66.6076 23.7031 66.5803 23.707 66.5022Z" fill="#231F20"/>
<path d="M14.3125 21.9162C12.7735 16.2326 10.9883 10.6272 9.48049 4.92794C9.45315 4.82638 9.28128 4.84591 9.2969 4.95138C10.0235 10.6193 11.586 16.8615 14.086 22.01C14.1485 22.1389 14.3477 22.049 14.3125 21.9162Z" fill="#231F20"/>
<path d="M8.76956 5.76778C8.45706 7.4709 8.42971 9.47481 9.06252 11.1037C9.1094 11.2287 9.28128 11.1818 9.25784 11.0529C8.76174 8.52559 8.73831 5.85372 8.82034 3.29122C8.82815 3.04903 8.45706 3.05294 8.44534 3.29122C8.35159 5.31465 8.42581 7.33028 8.75002 9.33028C8.89846 10.2639 9.34768 11.4553 9.07034 9.33028C8.91799 8.16231 8.97268 6.97481 8.96877 5.79512C8.96877 5.68575 8.78909 5.6545 8.76956 5.76778Z" fill="#231F20"/>
<path d="M9.30473 3.19747C8.95707 3.70528 8.5391 4.24044 8.49223 4.88887C8.48441 5.00997 8.64066 5.05684 8.71879 4.98262C9.19144 4.5295 9.32816 3.86934 9.49613 3.27559C9.52738 3.15841 9.37113 3.09981 9.30473 3.19747Z" fill="#231F20"/>
<path d="M9.80065 49.9943C10.1483 51.9709 10.6366 54.2639 11.5819 56.049C11.6327 56.1428 11.8046 56.1037 11.7928 55.9904C11.5819 53.9748 10.7069 51.8029 9.88659 49.9592C9.86315 49.9045 9.79284 49.9475 9.80065 49.9943Z" fill="#231F20"/>
<path d="M9.73049 49.0607C9.11721 52.0842 9.8008 55.8068 12.086 58.0256C12.1797 58.1193 12.3281 57.9982 12.2696 57.885C10.7578 54.967 9.75393 52.4357 9.8594 49.0764C9.8633 49.0022 9.74611 48.9865 9.73049 49.0607Z" fill="#231F20"/>
<path d="M9.81234 51.1233C10.0858 53.4865 10.9764 57.0256 13.1327 58.4006C13.2225 58.4592 13.3202 58.3459 13.2733 58.2561C12.6912 57.1545 11.8748 56.2209 11.3202 55.0842C10.703 53.8225 10.3748 52.4397 9.99984 51.0959C9.9725 50.9983 9.80062 51.0139 9.81234 51.1233Z" fill="#231F20"/>
<path d="M10.3827 49.131C10.8515 51.3889 11.3827 54.1584 12.7499 56.0646C12.8241 56.1662 12.9921 56.1076 12.9608 55.9787C12.6874 54.881 12.1366 53.8576 11.7265 52.8029C11.2616 51.592 10.871 50.3459 10.5312 49.092C10.5038 48.9943 10.3632 49.0373 10.3827 49.131Z" fill="#231F20"/>
<path d="M11.0467 49.5764C11.7225 51.5686 12.2225 53.7834 13.1795 55.6545C13.2537 55.7951 13.449 55.6897 13.4256 55.549C13.0389 53.5022 12.0857 51.4514 11.4061 49.4787C11.3279 49.2522 10.9686 49.3498 11.0467 49.5764Z" fill="#231F20"/>
<path d="M12.3673 49.549C12.7305 51.0412 13.0938 52.5373 13.4571 54.0295C13.504 54.2209 13.7813 54.174 13.7891 53.9865C13.7969 53.5764 13.7852 53.1701 13.7657 52.7561C13.7618 52.674 13.6251 52.6428 13.6094 52.7365C13.543 53.1545 13.4883 53.5647 13.4532 53.9865C13.5626 53.9709 13.6719 53.9553 13.7813 53.9436C13.418 52.4475 13.0548 50.9553 12.6876 49.4592C12.6368 49.2483 12.3165 49.3381 12.3673 49.549Z" fill="#231F20"/>
<path d="M13.4139 50.01C13.8358 51.3029 14.1405 52.8459 14.8592 54.01C14.9178 54.0998 15.0936 54.0725 15.0819 53.9514C14.91 52.592 14.1874 51.2053 13.703 49.9279C13.6366 49.7482 13.3514 49.8186 13.4139 50.01Z" fill="#231F20"/>
<path d="M11.1952 40.1897C10.039 43.5295 9.79289 47.3342 10.7382 50.7639C10.7655 50.8576 10.9257 50.842 10.9179 50.7365C10.6288 47.1272 10.6874 43.8186 11.3866 40.2404C11.4101 40.1154 11.2382 40.0686 11.1952 40.1897Z" fill="#231F20"/>
<path d="M11.1014 41.8381C11.2616 44.1936 11.4413 46.9279 12.1639 49.1701C12.1952 49.2639 12.3358 49.2482 12.3397 49.1467C12.3788 46.7678 11.7616 44.1311 11.2264 41.8225C11.2108 41.7522 11.0975 41.7678 11.1014 41.8381Z" fill="#231F20"/>
<path d="M11.8866 43.4436C11.8866 45.049 11.7733 46.7092 11.953 48.3029C11.9686 48.4475 12.1639 48.4475 12.1795 48.3029C12.3631 46.7092 12.2459 45.049 12.2459 43.4436C12.2498 43.2131 11.8866 43.2131 11.8866 43.4436Z" fill="#231F20"/>
<path d="M11.6444 28.4592C11.1015 30.3928 11.078 32.4436 10.9335 34.4397C10.7655 36.7443 10.4335 39.1037 10.578 41.4123C10.5858 41.5764 10.8397 41.6272 10.8749 41.4514C11.289 39.4826 11.3163 37.4436 11.4647 35.4357C11.6288 33.1428 11.9843 30.7522 11.6913 28.467C11.6913 28.4397 11.6522 28.4279 11.6444 28.4592Z" fill="#231F20"/>
<path d="M12.4414 30.8928C12.543 34.5061 12.2656 38.2912 12.8438 41.8654C12.875 42.0607 13.1602 41.9982 13.1719 41.8186C13.4258 38.2248 12.8047 34.4826 12.582 30.8928C12.5781 30.8029 12.4414 30.8029 12.4414 30.8928Z" fill="#231F20"/>
<path d="M23.8555 63.1154C21.3477 57.3459 14.6133 54.6467 13.6445 48.092C13.6328 47.9982 13.4922 48.0256 13.4883 48.1115C13.3359 54.842 21.168 57.7326 23.7109 63.2014C23.7578 63.3029 23.8984 63.2131 23.8555 63.1154Z" fill="#231F20"/>
<path d="M23.2108 61.1428C26.7772 56.5803 29.0975 50.4943 29.078 44.674C29.078 44.5608 28.8905 44.5295 28.8709 44.6467C27.9881 50.7287 26.328 55.7717 22.9998 60.9787C22.9178 61.1076 23.117 61.2678 23.2108 61.1428Z" fill="#231F20"/>
<path d="M20.7538 47.5334C18.7616 46.424 16.9023 45.2287 15.1874 43.7092C13.6249 42.3264 12.4491 40.6467 11.1132 39.0646C11.0507 38.9904 10.9491 39.0842 10.9882 39.1584C12.8515 42.924 16.828 46.1076 20.6249 47.76C20.7733 47.8225 20.9062 47.6193 20.7538 47.5334Z" fill="#231F20"/>
<path d="M20.8828 46.6115C23.7851 42.799 25.1875 37.6389 24.3984 32.8849C24.3828 32.7873 24.2305 32.8107 24.2305 32.9045C24.3437 37.9592 23.3633 42.1779 20.7773 46.5529C20.7383 46.6193 20.8359 46.6701 20.8828 46.6115Z" fill="#231F20"/>
<path d="M18.1016 35.8537C16.6875 34.5686 15.3555 33.4357 14.2344 31.8576C13.1445 30.3303 12.4805 28.5568 11.8945 26.7912C11.8633 26.6975 11.7344 26.7365 11.7461 26.8303C12.2617 30.4162 14.6875 34.3381 17.9531 36.0412C18.0703 36.1037 18.2031 35.9514 18.1016 35.8537Z" fill="#231F20"/>
<path d="M18.5155 36.1545C20.5038 32.4982 20.621 27.8068 19.1874 23.9436C19.1522 23.8459 19.0155 23.885 19.035 23.9826C19.7889 28.2522 19.4452 31.9279 18.4022 36.1076C18.3827 36.174 18.4803 36.2209 18.5155 36.1545Z" fill="#231F20"/>
<path d="M14.6953 25.0803C14.25 24.2639 13.7343 23.4787 13.2343 22.6936C12.7304 21.9045 12.3047 21.0295 11.7031 20.3108C11.6289 20.2248 11.4843 20.3147 11.5156 20.4162C12.0664 22.1076 13.3945 23.8733 14.6328 25.1311C14.664 25.1662 14.7187 25.1233 14.6953 25.0803Z" fill="#231F20"/>
<path d="M14.9453 25.6623C15.7343 24.0412 16.1015 22.1311 15.8008 20.342C15.7812 20.2404 15.6328 20.2717 15.625 20.3654C15.5195 22.1779 15.3008 23.8498 14.7539 25.5842C14.7187 25.6975 14.8945 25.7717 14.9453 25.6623Z" fill="#231F20"/>
<path d="M22.3438 76.0607C21.5821 76.881 21.0469 77.8732 20.4805 78.8341C19.8633 79.881 18.9493 81.0255 18.7266 82.2365C18.6953 82.4123 18.8828 82.5255 19.0235 82.4084C19.8477 81.6935 20.3125 80.5334 20.8438 79.5919C21.461 78.4865 22.1641 77.3888 22.5274 76.1701C22.5586 76.0646 22.418 75.9826 22.3438 76.0607Z" fill="#231F20"/>
<path d="M22.457 75.9435C21.3437 77.9084 20.0625 79.8576 19.1367 81.9201C18.9609 82.3068 19.5 82.6467 19.7187 82.2599C19.9141 81.9123 20.1133 81.5685 20.3008 81.217C20.3789 81.0724 20.1992 80.9396 20.0781 81.0451C19.7773 81.3068 19.4844 81.5802 19.1875 81.8498C19.3672 81.9865 19.543 82.1232 19.7187 82.2599C20.9844 80.3888 21.9726 78.2756 23.0625 76.2951C23.2812 75.9006 22.6797 75.549 22.457 75.9435Z" fill="#231F20"/>
<path d="M22.25 76.4709C21.1172 78.2482 20.2188 80.2365 19.3516 82.1584C19.1407 82.6232 19.7735 83.0178 20.0508 82.5647C21.1875 80.717 22.3829 78.7287 23.8282 77.1037C23.6602 76.9748 23.4961 76.8459 23.3282 76.717C22.5352 77.9475 21.8477 79.26 21.168 80.5529C20.9063 81.0451 21.5821 81.4201 21.8985 80.9826C22.7266 79.8342 23.5704 78.6975 24.3282 77.5061C24.1836 77.4201 24.0391 77.3342 23.8907 77.2482C23.4922 77.9357 23.0938 78.6076 22.7422 79.3225C22.6836 79.4397 22.8438 79.5881 22.9375 79.4709C23.4375 78.8342 23.875 78.174 24.3282 77.5061C24.4922 77.2678 24.1211 76.9826 23.9297 77.1975C22.9844 78.2443 22.1133 79.3654 21.2305 80.467C21.4571 80.6389 21.6758 80.8107 21.8985 80.9826C22.5938 79.6897 23.2969 78.385 23.8789 77.0373C24.0391 76.6701 23.5469 76.3537 23.3282 76.717C22.1758 78.6115 20.6954 80.3889 19.3516 82.1584C19.586 82.2912 19.8204 82.4279 20.0508 82.5647C20.9922 80.6467 21.9649 78.6623 22.625 76.6272C22.6993 76.3967 22.3711 76.2795 22.25 76.4709Z" fill="#231F20"/>
<path d="M29.2694 68.4279C27.9256 70.2795 26.785 72.2756 25.5233 74.1857C24.2928 76.0529 22.6366 77.8381 21.7264 79.8771C21.6131 80.131 21.8905 80.3459 22.1053 80.1701C23.8592 78.7443 25.0858 76.5177 26.3046 74.6388C27.5546 72.7091 28.7655 70.717 29.6249 68.5763C29.7108 68.3576 29.3905 68.2638 29.2694 68.4279Z" fill="#231F20"/>
<path d="M27.4139 70.506C25.3163 73.0803 23.2577 76.0998 21.7108 79.0412C21.5858 79.2795 21.9178 79.5724 22.1014 79.342C24.1835 76.7443 26.1405 73.6584 27.6639 70.7013C27.746 70.5451 27.5311 70.3576 27.4139 70.506Z" fill="#231F20"/>
<path d="M39.0001 43.8381C38.3711 36.8303 35.9805 30.2678 35.8399 23.1467C35.6876 15.4084 37.5977 7.71308 40.836 0.724802C40.5352 0.642771 40.2344 0.560739 39.9376 0.478708C39.1251 9.79511 43.8829 18.2326 44.543 27.3967C45.2188 36.7717 37.7657 43.7912 36.9922 52.7639C36.9532 53.2482 37.6641 53.2951 37.8008 52.8732C40.4219 44.9162 45.543 37.2365 45.7852 28.6857C46.0586 18.9865 40.0938 10.3029 40.8985 0.478708C40.9376 0.013864 40.1993 -0.197073 40.004 0.236521C37.0586 6.65058 35.4454 13.3537 35.0469 20.3928C34.5821 28.6428 37.2149 35.9162 38.7227 43.8771C38.7501 44.0334 39.0157 43.9982 39.0001 43.8381Z" fill="#231F20"/>
<path d="M37.9531 40.1701C37.7852 41.299 37.7696 42.4318 37.7656 43.5686C37.7617 44.8693 37.5821 46.2795 37.9024 47.5451C37.9492 47.7248 38.2227 47.7248 38.2696 47.5451C38.5508 46.4436 38.4141 45.26 38.4063 44.1311C38.4024 42.8068 38.4141 41.4826 38.2149 40.1701C38.1953 40.0373 37.9727 40.0373 37.9531 40.1701Z" fill="#231F20"/>
<path d="M37.6092 38.5607C37.3006 40.1115 37.3201 41.6818 37.3123 43.26C37.3045 45.0881 37.1873 46.9514 37.535 48.76C37.5701 48.9436 37.8709 48.9436 37.9061 48.76C38.199 47.1975 38.1209 45.6193 38.1131 44.0373C38.1053 42.2092 38.1639 40.3576 37.8006 38.5607C37.7811 38.467 37.6287 38.467 37.6092 38.5607Z" fill="#231F20"/>
<path d="M37.9686 46.3381C38.6952 42.9592 38.3085 39.5295 37.8358 36.135C37.1757 31.3811 36.3983 26.6623 35.7967 21.8967C35.7694 21.6623 35.3983 21.5568 35.3514 21.8342C34.7577 25.3029 35.3866 28.6936 35.9999 32.1232C36.8514 36.8889 37.6327 41.467 37.8202 46.3186C37.8202 46.4006 37.9491 46.4279 37.9686 46.3381Z" fill="#231F20"/>
<path d="M39.3632 44.8264C41.2617 40.9592 41.0429 36.549 40.8515 32.3459C40.5937 26.8342 39.8554 21.3147 38.7695 15.9084C38.7421 15.7717 38.5273 15.8068 38.5351 15.9397C38.8945 25.7834 41.3906 35.0022 39.2617 44.7834C39.25 44.842 39.3359 44.885 39.3632 44.8264Z" fill="#231F20"/>
<path d="M39.582 7.81465C37.9023 11.9826 37.4296 17.2678 38.6328 21.6193C38.664 21.7326 38.8476 21.7131 38.8398 21.592C38.5234 16.7756 38.6679 12.6037 39.7109 7.8498C39.7304 7.76387 39.6132 7.73652 39.582 7.81465Z" fill="#231F20"/>
<path d="M40.1523 11.4162C39.7226 13.9787 39.1718 16.549 38.9609 19.135C38.9492 19.2678 39.164 19.2951 39.1914 19.1662C39.7226 16.6271 39.9218 14.0021 40.2383 11.4279C40.2461 11.3811 40.1601 11.3693 40.1523 11.4162Z" fill="#231F20"/>
<path d="M41.375 13.424C40.6993 16.1076 39.836 18.7951 39.4024 21.5334C39.3829 21.6584 39.5586 21.7131 39.5977 21.5842C40.4532 18.9514 40.8946 16.1584 41.504 13.4592C41.5235 13.3732 41.3985 13.342 41.375 13.424Z" fill="#231F20"/>
<path d="M42.5977 15.385C40.9648 18.4709 39.5664 22.1037 39.5547 25.6428C39.5547 25.7873 39.7734 25.8186 39.8086 25.674C40.6992 22.1857 41.332 18.8225 42.75 15.4748C42.793 15.3693 42.6523 15.2795 42.5977 15.385Z" fill="#231F20"/>
<path d="M43.2577 18.7561C41.8007 21.0998 39.9608 24.3772 40.1093 27.2248C40.1171 27.3733 40.3358 27.4592 40.41 27.3068C40.9452 26.2209 41.1444 24.9865 41.4921 23.8303C42.0038 22.1311 42.6991 20.4709 43.4608 18.8733C43.5233 18.7365 43.3397 18.6233 43.2577 18.7561Z" fill="#231F20"/>
<path d="M44.3828 19.51C42.9922 22.1896 41.4765 25.1037 40.7148 28.0373C40.6797 28.1857 40.8789 28.2678 40.9609 28.1389C42.5468 25.5764 43.6132 22.4475 44.5859 19.5959C44.625 19.4787 44.4414 19.4006 44.3828 19.51Z" fill="#231F20"/>
<path d="M44.3554 22.3342C42.9491 25.2483 41.3085 28.4709 40.5546 31.6193C40.5155 31.7795 40.7382 31.8811 40.828 31.7326C42.4765 28.9436 43.539 25.4865 44.5507 22.4162C44.5898 22.3029 44.4101 22.2248 44.3554 22.3342Z" fill="#231F20"/>
<path d="M44.1289 25.1311C42.9336 28.299 41.3125 31.2873 40.1172 34.4436C40.0156 34.7092 40.4141 34.8459 40.5586 34.6272C42.3945 31.8264 43.5586 28.424 44.6719 25.2795C44.793 24.9357 44.2539 24.7951 44.1289 25.1311Z" fill="#231F20"/>
<path d="M44.078 27.8498C42.7303 30.6662 41.0819 33.5139 40.117 36.4865C40.0037 36.8381 40.5155 37.0334 40.703 36.7326C42.3123 34.092 43.3905 31.0061 44.6405 28.1779C44.8045 27.8029 44.2576 27.467 44.078 27.8498Z" fill="#231F20"/>
<path d="M44.1446 29.4943C42.7813 32.5529 41.0039 35.674 40.0703 38.8889C39.9766 39.2092 40.4258 39.385 40.5977 39.1115C42.3399 36.2912 43.4532 32.9045 44.7969 29.8732C44.9883 29.4357 44.3438 29.0529 44.1446 29.4943Z" fill="#231F20"/>
<path d="M44.3007 31.2053C42.8515 34.1662 41.3475 37.3303 40.3905 40.4865C40.2733 40.8732 40.8632 41.1311 41.0507 40.7639C42.535 37.8068 43.6288 34.4982 44.6288 31.3459C44.6874 31.1506 44.3905 31.0217 44.3007 31.2053Z" fill="#231F20"/>
<path d="M43.9256 33.6467C43.0819 35.592 42.0154 37.7248 41.5819 39.8029C41.5467 39.967 41.7694 40.0725 41.8592 39.9162C42.9412 38.092 43.5936 35.8029 44.2811 33.7951C44.3553 33.5881 44.0115 33.4397 43.9256 33.6467Z" fill="#231F20"/>
<path d="M39.7303 45.0607C39.785 41.8849 39.3983 38.1935 37.9921 35.3107C37.9178 35.1545 37.7186 35.2756 37.7382 35.4162C38.2147 38.6506 39.1014 41.8303 39.5819 45.0803C39.5936 45.1662 39.7303 45.1428 39.7303 45.0607Z" fill="#231F20"/>
<path d="M39.2734 45.8732C39.3789 44.1193 39.3828 42.3654 39.3828 40.6115C39.3828 40.4006 39.0469 40.3459 39.0117 40.5607C38.6055 42.9318 38.2031 45.5607 38.6289 47.9474C38.668 48.1779 39.0117 48.1115 39.0195 47.8967C39.1289 45.4435 38.9609 43.1115 39.375 40.6623C39.2539 40.6428 39.1289 40.6271 39.0039 40.6115C39.0039 42.3654 39.0078 44.1193 39.1094 45.8732C39.1172 45.9787 39.2695 45.9787 39.2734 45.8732Z" fill="#231F20"/>
<path d="M38.9022 43.3693C38.6561 44.717 38.2616 46.1232 38.2889 47.4982C38.2889 47.6623 38.4999 47.674 38.5546 47.5373C39.0468 46.2756 39.1639 44.8342 39.4022 43.5061C39.4608 43.1779 38.9608 43.0373 38.9022 43.3693Z" fill="#231F20"/>
<path d="M41.0195 42.5529C39.2968 46.5568 37.957 50.8732 36.7929 55.0764C36.6835 55.4709 37.2538 55.6154 37.3906 55.2443C38.871 51.1584 40.2812 46.8732 41.1952 42.6232C41.2148 42.5256 41.0663 42.4475 41.0195 42.5529Z" fill="#231F20"/>
<path d="M38.664 47.4553C37.9609 49.1857 37.2539 50.9045 36.5937 52.6506C35.9492 54.3498 35.0664 56.1779 34.957 58.0061C34.9492 58.1623 35.1523 58.1897 35.2265 58.0803C36.1406 56.7639 36.5117 55.0998 37.0078 53.5881C37.6718 51.5764 38.2383 49.5373 38.8242 47.4982C38.8515 47.3967 38.7031 47.3615 38.664 47.4553Z" fill="#231F20"/>
<path d="M37.8985 47.8498C36.293 51.2678 34.7735 55.1623 33.8008 58.8107C33.7344 59.0607 34.0821 59.2053 34.2188 58.9826C36.168 55.799 37.5704 51.6115 38.086 47.9279C38.0977 47.8225 37.9532 47.7365 37.8985 47.8498Z" fill="#231F20"/>
<path d="M36.0662 26.8225C36.7264 29.799 37.949 32.6662 39.867 35.0568C39.9139 35.1154 40.0115 35.0373 39.9725 34.9748C38.3162 32.3889 36.9959 29.7639 36.1795 26.7912C36.16 26.717 36.0467 26.7443 36.0662 26.8225Z" fill="#231F20"/>
<path d="M35.9688 22.9357C36.9258 25.7717 37.7774 28.8186 39.2071 31.4592C39.25 31.5412 39.3711 31.4865 39.3516 31.4006C38.6836 28.4826 37.3125 25.635 36.1602 22.8811C36.1133 22.7678 35.9297 22.8107 35.9688 22.9357Z" fill="#231F20"/>
<path d="M35.6366 18.2873C36.617 21.1936 37.8944 24.4943 39.6014 27.0412C39.6756 27.1506 39.8592 27.0842 39.8202 26.9475C39.0233 23.9826 37.3749 20.8498 35.828 18.2053C35.7694 18.1037 35.5975 18.1701 35.6366 18.2873Z" fill="#231F20"/>
<path d="M36.289 15.1232C37.0624 18.0061 37.9647 21.0725 39.3476 23.7287C39.4296 23.8889 39.6679 23.7756 39.6288 23.6076C38.9726 20.6936 37.6835 17.7717 36.4218 15.0686C36.3827 14.9904 36.2655 15.0451 36.289 15.1232Z" fill="#231F20"/>
<path d="M12.2811 56.1037C13.8865 59.424 16.6912 62.7209 20.1834 64.1389C20.324 64.1936 20.4529 63.9748 20.3318 63.8772C17.285 61.4826 14.6482 59.2756 12.5506 55.9475C12.4412 55.7756 12.1951 55.924 12.2811 56.1037Z" fill="#231F20"/>
<path d="M11.4374 56.5373C13.1952 60.1076 17.1327 64.1232 20.9413 65.4592C21.1132 65.5178 21.2577 65.2717 21.121 65.1506C19.5702 63.8029 17.7968 62.7443 16.2538 61.3732C14.5468 59.8537 13.2147 58.0295 11.7147 56.3225C11.5741 56.1623 11.3514 56.3654 11.4374 56.5373Z" fill="#231F20"/>
<path d="M13.8477 56.4826C15.0898 59.4318 17.7695 62.8225 20.8047 64.049C20.9766 64.1193 21.0898 63.8733 20.9766 63.7522C19.8438 62.6037 18.5117 61.6818 17.3867 60.5139C16.1641 59.2365 15.1953 57.7834 14.1992 56.3342C14.0859 56.1662 13.7578 56.2678 13.8477 56.4826Z" fill="#231F20"/>
<path d="M14.5194 56.2912C15.4764 57.6193 16.5975 58.8342 17.6912 60.049C18.8709 61.3615 20.0233 63.0686 21.5584 63.967C21.7186 64.0607 21.867 63.8771 21.7967 63.7287C21.1092 62.2756 19.7186 61.1271 18.6366 59.9592C17.4061 58.6271 16.1873 57.2521 14.8162 56.0607C14.6639 55.9279 14.3865 56.1076 14.5194 56.2912Z" fill="#231F20"/>
<path d="M17.0506 57.3693C17.5858 58.5764 18.3319 59.6389 19.1874 60.6311C19.8827 61.4397 20.9374 62.7014 22.0624 62.8186C22.1991 62.8342 22.2499 62.674 22.203 62.5725C21.7928 61.6818 20.6561 61.0373 19.9647 60.3498C18.9921 59.385 18.1952 58.2756 17.4256 57.1506C17.2655 56.9123 16.9374 57.1154 17.0506 57.3693Z" fill="#231F20"/>
<path d="M19.9648 58.5412C20.8086 60.1193 21.6016 62.1545 22.9258 63.3888C23.082 63.5295 23.3476 63.3927 23.2851 63.1779C22.7891 61.4357 21.3398 59.8068 20.3164 58.338C20.168 58.1232 19.8398 58.3068 19.9648 58.5412Z" fill="#231F20"/>
<path d="M20.7656 64.1428C21.0078 65.0607 21.4882 65.9006 22.0117 66.6818C22.4492 67.3381 22.9375 68.131 23.6835 68.4435C23.871 68.5178 24.0585 68.2951 24.0039 68.1232C23.789 67.4123 23.1601 66.8537 22.7343 66.2599C22.2031 65.5099 21.7695 64.6975 21.2421 63.9435C21.0781 63.7092 20.6875 63.8459 20.7656 64.1428Z" fill="#231F20"/>
<path d="M24.3827 69.6193C24.2734 69.8771 24.2304 70.1506 24.2538 70.4357C24.2109 70.9865 24.2187 71.5451 24.207 72.0998C24.1796 73.217 24.1952 74.3146 24.2773 75.4279C24.5038 75.4279 24.7265 75.4279 24.9492 75.4279C24.9062 74.4748 24.9492 73.5334 24.9765 72.5842C24.9882 72.1154 24.3671 72.0998 24.2148 72.4826C23.8398 73.4123 23.496 74.3576 23.1523 75.3029C23.4218 75.3381 23.6874 75.3732 23.957 75.4123C24.1171 74.0959 24.2538 72.7717 24.4804 71.467C24.5507 71.0529 23.9687 70.7287 23.7577 71.1623C22.8906 72.9474 22.0429 75.0451 22.1992 77.0646C22.2304 77.4904 22.8515 77.6154 22.9687 77.1662C23.4648 75.2599 23.6484 73.4045 24.4413 71.5607C24.1952 71.4943 23.9492 71.4279 23.7031 71.3615C23.5742 72.6818 23.3476 73.9904 23.1523 75.3029C23.0742 75.8224 23.7538 76.0217 23.9413 75.5217C24.2929 74.5803 24.6406 73.6389 24.9609 72.6857C24.707 72.6545 24.4531 72.6193 24.1992 72.5842C24.2421 73.5334 24.3046 74.4748 24.2773 75.4279C24.2656 75.8654 24.914 75.8537 24.9492 75.4279C25.0546 74.131 25.0546 72.8459 25.0351 71.5451C25.0234 70.8264 25.2382 69.7131 24.621 69.1974C24.5546 69.1428 24.4609 69.0998 24.3749 69.131C24.1288 69.2209 24.0976 69.2482 24.0077 69.4943C23.9882 69.549 24.0117 69.6232 24.0546 69.6662C24.0859 69.6935 24.1171 69.7248 24.1484 69.756C24.2499 69.8498 24.4179 69.756 24.3827 69.6193Z" fill="#231F20"/>
<path d="M22.5078 77.3733C21.1523 79.9904 19.9687 82.342 17.8281 84.4397C18.0664 84.5803 18.3085 84.7209 18.5468 84.8615C18.664 84.592 18.7382 84.3147 18.7773 84.0256C18.8164 83.8225 18.5898 83.6858 18.4335 83.8264C18.2031 84.0022 18 84.2092 17.8281 84.4397C17.4726 84.8615 18.0273 85.4318 18.4375 85.049C20.5156 83.1115 22.4648 80.4123 22.9101 77.5451C22.9453 77.3147 22.6328 77.135 22.5078 77.3733Z" fill="#231F20"/>
<path d="M24.4844 78.1818C23.6251 79.4787 22.5743 80.5881 21.6329 81.8146C21.5196 81.9631 21.7305 82.1193 21.8633 82.049C23.3086 81.3185 24.3086 79.8146 24.8321 78.3264C24.9024 78.1154 24.5977 78.0099 24.4844 78.1818Z" fill="#231F20"/>
<path d="M19.2343 84.3342C25.7577 80.7717 31.9843 77.1662 39.0117 74.6115C45.9296 72.0959 53.1992 70.6037 60.5117 69.8811C67.2656 69.2131 73.9531 69.7717 80.7031 70.1115C86.6562 70.4084 92.7187 70.0178 97.6288 66.3068C97.8828 66.1115 97.6679 65.7053 97.3749 65.8693C90.9687 69.4318 83.9179 69.1858 76.8281 68.6936C69.9335 68.2209 63.0702 68.1623 56.2109 69.174C43.2656 71.0803 29.1718 75.4904 18.8163 83.7912C18.4999 84.0451 18.9023 84.5139 19.2343 84.3342Z" fill="#231F20"/>
<path d="M27.2343 79.5412C30.3164 73.5686 33.1445 68.842 38.8632 64.9592C44.8554 60.8889 52.1015 59.3772 59.2226 59.0686C67.2617 58.7209 75.2968 60.342 83.0859 62.135C88.9765 63.4943 95.5312 65.0725 101.348 62.6701C101.773 62.4943 101.621 61.8889 101.156 61.9748C91.9687 63.6389 83.5312 60.6623 74.5664 59.0256C66.9414 57.635 59.1953 57.3107 51.5546 58.7248C41.6328 60.5647 28.3476 68.4123 26.957 79.467C26.9375 79.6154 27.1679 79.6662 27.2343 79.5412Z" fill="#231F20"/>
<path d="M100.383 62.6701C101.961 62.4396 103.297 61.5763 101.914 63.6115C100.758 65.3068 99.3788 66.8302 97.9569 68.299C95.371 70.9748 92.3397 73.2365 89.164 75.1506C82.4296 79.2131 74.8475 81.5021 67.1796 83.0099C59.2265 84.5724 50.6405 85.6466 42.5233 85.256C35.9491 84.9396 29.2733 79.467 22.7538 82.3498C22.2304 82.5802 22.6444 83.256 23.1093 83.1935C27.621 82.5607 31.41 83.9865 35.5975 85.4162C39.2382 86.6623 42.8905 86.9631 46.7186 86.8654C54.6366 86.6623 62.7694 85.4591 70.4843 83.6974C83.7733 80.6662 96.6171 73.7404 103.898 61.8732C104.062 61.6037 103.793 61.2795 103.5 61.3537C102.406 61.631 101.34 61.9162 100.273 62.2756C100.016 62.3615 100.125 62.7091 100.383 62.6701Z" fill="#231F20"/>
<path d="M33.8008 63.6076C34.711 62.9748 35.4453 62.1076 36.2188 61.3224C36.9961 60.5373 37.8282 59.7756 38.4766 58.8732C38.5547 58.7678 38.3985 58.6076 38.293 58.6896C37.4024 59.3537 36.6524 60.1935 35.8789 60.9826C35.1055 61.7678 34.2461 62.5178 33.6328 63.4357C33.5625 63.5373 33.6992 63.6779 33.8008 63.6076Z" fill="#231F20"/>
<path d="M34.2773 62.8537C37.543 59.1115 40.9883 56.5412 45.4297 54.3459C45.5781 54.2717 45.4726 54.0412 45.3203 54.0842C40.832 55.3537 36.5195 58.7522 34.1523 62.76C34.1094 62.8342 34.2187 62.924 34.2773 62.8537Z" fill="#231F20"/>
<path d="M35.5313 58.4006C38.4571 56.9436 41.629 55.9201 44.5001 54.3967C44.6719 54.3068 44.543 54.0842 44.379 54.1076C41.2344 54.5334 37.9688 56.4084 35.4258 58.2209C35.3165 58.2951 35.4102 58.4592 35.5313 58.4006Z" fill="#231F20"/>
<path d="M43.6445 54.5412C40.9766 54.2678 38.6133 56.3928 36.9141 58.2014C36.5703 58.5608 37.0977 59.0881 37.457 58.7444C38.3555 57.8967 39.2656 57.3654 40.4102 56.9162C40.6016 56.842 40.5313 56.5608 40.3242 56.6037C38.1172 57.0842 36.2109 58.3967 34.5547 59.8889C34.2539 60.1545 34.5664 60.6819 34.9453 60.5569C36.1992 60.1545 37.1289 59.3889 38.1289 58.5608C38.418 58.3225 38.0273 57.8108 37.7266 58.0373C36.4375 59.0178 34.9648 59.9592 33.9336 61.2131C33.7539 61.4319 33.9766 61.7483 34.2422 61.6115C35.6836 60.8615 36.9063 59.6194 38.1289 58.5608C37.9727 58.4045 37.8164 58.2483 37.6602 58.092C36.7773 58.8967 35.9063 59.5139 34.7305 59.7834C34.8594 60.0061 34.9922 60.2326 35.1211 60.4553C36.2422 59.4436 37.4414 58.5998 38.7422 57.842C38.9336 57.7365 39.125 57.6311 39.3164 57.5295C39.9375 57.4358 40.0625 57.2717 39.6953 57.0373C38.9219 57.5842 37.9922 57.8889 37.082 58.0998C37.207 58.3147 37.332 58.5295 37.457 58.7444C39.3906 56.9084 41.0859 55.5881 43.6875 54.8498C43.8672 54.799 43.8164 54.5569 43.6445 54.5412Z" fill="#231F20"/>
<path d="M38.625 57.1115C39.6016 56.7443 40.4141 55.8967 41.3125 55.3498C42.4688 54.6506 43.7891 54.3732 44.9649 53.7443C45.1446 53.6506 45.0547 53.3771 44.8633 53.3732C43.6094 53.3537 42.3985 53.9787 41.3164 54.5607C40.3086 55.0998 38.961 55.9045 38.5079 56.9943C38.4805 57.0607 38.5625 57.135 38.625 57.1115Z" fill="#231F20"/>
<path d="M41.6288 55.2053C48.1601 53.7678 53.1991 48.0139 58.4569 44.26C66.6132 38.4357 75.5858 39.3498 84.9726 40.01C85.164 40.0217 85.1913 39.7365 85.0194 39.6857C77.6054 37.4904 69.164 37.9318 62.1366 41.1584C58.8788 42.6545 56.0272 45.0803 53.2694 47.3225C49.5312 50.3615 45.8593 52.9006 41.5819 55.0959C41.5155 55.1272 41.5624 55.2209 41.6288 55.2053Z" fill="#231F20"/>
<path d="M85.4101 39.8537C77.7383 40.6154 70.4219 43.3068 63.8789 47.3381C60.0117 49.7248 56.4687 51.8615 52.0312 53.1076C47.5156 54.3732 42.7969 54.3146 38.2539 55.3537C37.7773 55.4631 37.9101 56.1506 38.3633 56.174C45.6679 56.5178 53.8047 54.6818 60.207 51.1896C63.7969 49.2326 67.0039 46.7326 70.6914 44.9123C75.3789 42.5998 80.3828 41.3654 85.4922 40.4553C85.832 40.3928 85.7539 39.8186 85.4101 39.8537Z" fill="#231F20"/>
<path d="M39.6757 56.1467C45.5155 51.0646 50.4139 44.6545 56.8592 40.3029C63.996 35.4865 72.6835 37.5295 80.3632 39.4123C80.8397 39.5295 81.0038 38.8654 80.5624 38.6936C73.996 36.1232 65.1639 35.0022 58.6249 38.2756C55.1171 40.0295 52.3632 42.5607 49.5936 45.299C46.121 48.7287 42.5155 52.0959 39.2655 55.7365C39.0116 56.0178 39.3905 56.3928 39.6757 56.1467Z" fill="#231F20"/>
<path d="M46.6836 49.7326C45.7304 50.7365 44.5937 51.8693 44 53.135C43.9726 53.1975 44.0351 53.2873 44.1054 53.2404C45.2539 52.4084 46.1484 51.092 46.9687 49.9514C47.0898 49.7834 46.8242 49.5881 46.6836 49.7326Z" fill="#231F20"/>
<path d="M50.4453 45.3967C49.6406 46.2365 49.1171 47.3186 48.539 48.3225C47.875 49.4709 47.1289 50.6193 46.6953 51.8811C46.6484 52.0178 46.8476 52.1389 46.9453 52.0256C47.6992 51.135 48.246 50.0764 48.8125 49.0568C49.457 47.9084 50.2382 46.7561 50.5937 45.4826C50.6171 45.3967 50.5078 45.3303 50.4453 45.3967Z" fill="#231F20"/>
<path d="M53.6171 42.1428C51.9413 44.4943 50.371 47.2639 49.3085 49.9475C49.2538 50.0803 49.4452 50.1311 49.5156 50.0373C51.2499 47.7404 52.7929 44.967 53.9296 42.3225C54.0195 42.1115 53.7538 41.9514 53.6171 42.1428Z" fill="#231F20"/>
<path d="M56.3829 40.4162C54.4727 42.8342 52.875 45.7014 52.1133 48.7053C52.0899 48.8068 52.2383 48.8732 52.2891 48.7756C53.7266 46.0334 55.086 43.3068 56.6915 40.6506C56.8047 40.467 56.5235 40.2365 56.3829 40.4162Z" fill="#231F20"/>
<path d="M58.4022 39.6701C56.7069 41.8693 55.0702 44.7014 54.3319 47.4006C54.2928 47.5334 54.4725 47.5959 54.5467 47.4904C56.1639 45.1857 57.5624 42.4318 58.7967 39.9006C58.9296 39.6271 58.5819 39.4396 58.4022 39.6701Z" fill="#231F20"/>
<path d="M60.996 38.5139C59.8788 39.0061 59.0897 40.5178 58.4413 41.5061C57.6444 42.717 56.8163 44.0256 56.3514 45.4084C56.2382 45.7404 56.7225 45.9123 56.8983 45.6389C57.6796 44.424 58.2811 43.092 59.0546 41.8615C59.6952 40.8381 60.8241 39.76 61.0702 38.5686C61.078 38.5256 61.035 38.4943 60.996 38.5139Z" fill="#231F20"/>
<path d="M64.1405 37.3615C63.0585 37.8108 62.1601 38.6662 61.3905 39.5334C60.6874 40.3225 59.6991 41.5686 59.7382 42.674C59.746 42.842 59.9374 42.9123 60.0624 42.8068C60.8437 42.1272 61.3124 40.9358 61.9804 40.1272C62.703 39.2522 63.6132 38.635 64.4452 37.885C64.6679 37.6858 64.4374 37.2404 64.1405 37.3615Z" fill="#231F20"/>
<path d="M68.1405 35.9475C66.9647 36.924 65.7772 37.8693 64.6327 38.8772C63.6209 39.7639 62.4959 40.6506 61.7538 41.7834C61.6444 41.9514 61.8514 42.1193 62.0077 42.0373C63.2225 41.4123 64.2069 40.3654 65.2147 39.4592C66.3436 38.4397 67.3905 37.3459 68.4764 36.2834C68.6952 36.0686 68.3709 35.7561 68.1405 35.9475Z" fill="#231F20"/>
<path d="M70.2577 36.385C69.3475 36.8889 68.4725 37.385 67.6093 37.9748C66.9335 38.4357 66.1327 38.8928 65.6561 39.5764C65.5585 39.7209 65.7225 39.9006 65.8749 39.8576C66.7577 39.6193 67.5194 38.9162 68.2499 38.3889C69.0194 37.8264 69.6991 37.2092 70.41 36.5842C70.5194 36.4865 70.3788 36.3147 70.2577 36.385Z" fill="#231F20"/>
<path d="M71.6249 36.9475C71.0272 37.1037 70.4843 37.4162 69.9413 37.6935C69.3593 37.9904 68.5585 38.256 68.1405 38.7678C68.0233 38.9123 68.078 39.2092 68.3163 39.1857C68.9413 39.1271 69.5155 38.6975 70.0546 38.3967C70.6601 38.0568 71.3007 37.7482 71.8202 37.2873C71.9765 37.1467 71.8124 36.9006 71.6249 36.9475Z" fill="#231F20"/>
<path d="M74.8086 37.3693C69.5 37.2599 62.9297 39.4279 58.8594 42.881C58.6016 43.0998 58.9297 43.4279 59.1914 43.3146C61.7383 42.2014 64.1133 40.8576 66.7422 39.9045C69.3906 38.9435 72.1601 38.5646 74.8828 37.9162C75.1953 37.842 75.1172 37.3771 74.8086 37.3693Z" fill="#231F20"/>
<path d="M71.66 37.3537C65.0037 35.6193 56.5115 38.6623 52.0115 43.717C51.8279 43.9279 52.074 44.299 52.3279 44.1232C55.0428 42.2404 57.6639 40.5178 60.7654 39.3147C64.2811 37.9514 67.9256 37.9826 71.6092 37.7209C71.8162 37.7053 71.8748 37.4084 71.66 37.3537Z" fill="#231F20"/>
<path d="M52.1835 50.8068C50.3281 51.6897 48.1875 52.4436 46.5117 53.6389C46.4101 53.7131 46.4687 53.9006 46.6015 53.8537C48.5625 53.1897 50.4218 51.8889 52.2304 50.8889C52.2851 50.8576 52.2382 50.7795 52.1835 50.8068Z" fill="#231F20"/>
<path d="M53.3593 50.3186C52.5312 50.7639 51.7069 51.2092 50.8905 51.674C50.1757 52.0803 49.3827 52.4396 48.8124 53.0451C48.7421 53.1193 48.8124 53.2404 48.9101 53.217C49.7187 53.0139 50.4179 52.4943 51.121 52.0646C51.9218 51.5803 52.7148 51.0764 53.5077 50.5725C53.664 50.4709 53.5233 50.2287 53.3593 50.3186Z" fill="#231F20"/>
<path d="M54.5469 50.6818C53.7188 51.1193 52.8985 51.5764 52.0821 52.0373C51.3672 52.4396 50.4688 52.7795 49.9766 53.4553C49.918 53.5412 49.9962 53.6896 50.1016 53.674C50.836 53.5803 51.4454 53.0842 52.0626 52.7014C52.9649 52.1467 53.8594 51.592 54.7422 51.0139C54.9532 50.8771 54.7696 50.5646 54.5469 50.6818Z" fill="#231F20"/>
<path d="M54.4413 51.3147C53.7812 51.6623 53.1249 52.0139 52.4726 52.3732C52.1132 52.5686 51.1445 52.8967 51.0155 53.342C50.8593 53.8693 51.5273 54.1272 51.6015 53.6428C51.6093 53.5959 51.5976 53.5451 51.5507 53.5217C51.5312 53.51 51.5116 53.4943 51.4882 53.4826C51.414 53.4397 51.3007 53.5334 51.3593 53.6115C51.3866 53.6506 54.328 51.7639 54.6015 51.5881C54.7734 51.4787 54.6249 51.2209 54.4413 51.3147Z" fill="#231F20"/>
<path d="M56.9139 51.0412C55.8397 51.967 54.5584 52.4748 53.3358 53.1584C53.2459 53.2092 53.2811 53.3772 53.3944 53.3654C54.8631 53.174 56.0623 52.2326 57.0858 51.2131C57.1951 51.1037 57.0311 50.9436 56.9139 51.0412Z" fill="#231F20"/>
<path d="M64.703 45.8654C61.6014 47.6115 58.3944 49.5061 55.6209 51.7443C55.4725 51.8654 55.6639 52.0803 55.8162 51.9982C58.9725 50.3771 61.992 48.2092 64.8319 46.0881C64.9608 45.9904 64.8514 45.7795 64.703 45.8654Z" fill="#231F20"/>
<path d="M65.3983 46.1701C63.6131 47.9436 61.5662 49.0373 59.3475 50.1545C59.1951 50.2326 59.3045 50.4592 59.4608 50.424C61.8748 49.8498 63.992 48.2092 65.6092 46.3811C65.7342 46.2365 65.5389 46.0334 65.3983 46.1701Z" fill="#231F20"/>
<path d="M63.4296 45.7795C59.8163 47.6975 55.8827 49.5764 52.5702 51.9748C52.4257 52.0803 52.5468 52.2834 52.7069 52.2092C56.4374 50.5256 60.0194 48.049 63.4804 45.8654C63.5351 45.8303 63.4882 45.7482 63.4296 45.7795Z" fill="#231F20"/>
<path d="M62.6523 47.0725C60.8984 48.4826 58.9101 49.5256 56.9101 50.5373C56.7968 50.5959 56.8749 50.7873 56.9999 50.7443C59.1874 49.9982 61.0429 48.6975 62.7734 47.1936C62.8554 47.1193 62.7343 47.0022 62.6523 47.0725Z" fill="#231F20"/>
<path d="M75.1952 42.9318C71.078 43.6818 66.3007 45.1467 62.953 47.7599C62.828 47.8576 62.9608 48.0881 63.1092 48.0295C67.1991 46.3928 70.996 44.4201 75.2616 43.1623C75.41 43.1193 75.3475 42.9045 75.1952 42.9318Z" fill="#231F20"/>
<path d="M78.4687 41.0647C73.5937 42.0725 68.5312 43.5881 64.2343 46.1779C64.1406 46.2326 64.207 46.4084 64.3124 46.3615C69.0234 44.4084 73.5507 42.4748 78.5234 41.2522C78.6445 41.2248 78.5937 41.0373 78.4687 41.0647Z" fill="#231F20"/>
<path d="M77.1874 40.7756C72.9178 41.5725 67.9569 43.0764 64.328 45.5451C64.2264 45.6154 64.285 45.799 64.4139 45.7521C66.4218 45.0646 68.3202 44.0568 70.2968 43.2795C72.5741 42.3889 74.9257 41.7404 77.2538 41.0061C77.4022 40.9592 77.3397 40.7482 77.1874 40.7756Z" fill="#231F20"/>
<path d="M78.0546 40.0412C73.996 40.3967 69.3007 41.4943 65.8476 43.7365C65.7148 43.8225 65.7968 44.0412 65.957 43.9982C70.0351 42.842 73.9453 41.3147 78.0898 40.2912C78.2265 40.26 78.1992 40.0295 78.0546 40.0412Z" fill="#231F20"/>
<path d="M74.8397 39.8537C72.1444 40.592 69.2694 41.1428 66.6991 42.2444C66.5663 42.299 66.6679 42.4787 66.789 42.4592C69.5312 41.9904 72.2421 40.8889 74.8944 40.049C75.0155 40.01 74.9647 39.8186 74.8397 39.8537Z" fill="#231F20"/>
<path d="M75.6563 39.7287C72.7227 39.2483 69.4688 39.9045 66.9766 41.553C66.8321 41.6506 66.9219 41.9123 67.1016 41.8498C69.9415 40.8069 72.6016 40.1819 75.629 39.9319C75.7383 39.924 75.7813 39.7483 75.6563 39.7287Z" fill="#231F20"/>
<path d="M81.2696 40.1936C80.3282 40.1897 79.3907 40.2795 78.4532 40.3889C77.6446 40.4826 76.6524 40.4553 75.9727 40.924C75.8829 40.9904 75.8985 41.1154 76.004 41.1545C76.7696 41.4397 77.6602 41.1779 78.4532 41.0764C79.418 40.9553 80.379 40.8068 81.3204 40.5647C81.5313 40.51 81.4845 40.1936 81.2696 40.1936Z" fill="#231F20"/>
<path d="M82.8945 39.9006C81.0234 40.0295 78.8945 40.342 77.1641 41.0529C76.9648 41.135 76.9727 41.4475 77.2148 41.4436C79.0898 41.424 81.1797 40.8732 82.9414 40.26C83.1289 40.1936 83.1094 39.885 82.8945 39.9006Z" fill="#231F20"/>
<path d="M32.6405 77.9709C39.1483 80.6896 44.2772 84.467 51.7225 83.7599C51.8514 83.7482 51.8553 83.5646 51.7225 83.5607C48.1952 83.4201 44.9647 82.9396 41.6405 81.7443C38.5272 80.6271 35.9725 78.3928 32.7499 77.5724C32.4842 77.506 32.4022 77.8732 32.6405 77.9709Z" fill="#231F20"/>
<path d="M34.5196 76.6428C40.875 73.1936 43.4766 65.6662 50.2266 62.4826C50.3477 62.424 50.2617 62.2326 50.1367 62.2678C47.0391 63.1779 44.7891 65.3264 42.6758 67.6779C39.9492 70.7131 37.4805 73.7912 34.4297 76.5256C34.3633 76.5842 34.4453 76.6818 34.5196 76.6428Z" fill="#231F20"/>
<path d="M50.1093 70.7912C51.5468 68.7209 53.0858 66.8263 55.0116 65.1935C56.9569 63.5451 59.2108 62.6623 61.4413 61.5177C61.5702 61.4513 61.4765 61.2716 61.3475 61.2951C56.578 62.174 51.9608 66.4005 49.9452 70.6935C49.8944 70.8068 50.0429 70.8888 50.1093 70.7912Z" fill="#231F20"/>
<path d="M60.1522 70.0607C62.1014 68.4513 63.9061 66.756 66.0116 65.338C67.9296 64.0451 70.0233 63.217 72.035 62.1154C72.1991 62.0255 72.0858 61.7795 71.91 61.8185C67.4843 62.842 62.5546 66.1935 59.871 69.8419C59.7421 70.0177 60.0077 70.1779 60.1522 70.0607Z" fill="#231F20"/>
<path d="M50.0117 72.5803C51.8633 74.1545 53.8711 75.5686 55.8438 76.9865C57.3594 78.0764 58.9727 79.5412 60.9336 78.9553C60.9883 78.9397 60.9648 78.8576 60.9102 78.8693C58.4961 79.342 56.4805 76.9748 54.7539 75.674C53.2539 74.5412 51.7617 73.3772 50.1875 72.3537C50.0508 72.2639 49.8828 72.4748 50.0117 72.5803Z" fill="#231F20"/>
<path d="M61.0234 70.6662C62.8867 71.5529 64.5664 72.5021 66.1016 73.9162C67.1016 74.8342 67.7383 76.2482 68.8906 76.9982C71.6602 78.7912 75.2031 79.3771 78.4609 79.2873C78.668 79.2795 78.6563 78.9982 78.4609 78.9748C73.9063 78.424 70.2149 78.0178 67.1524 74.3146C65.5899 72.4279 63.4219 71.1349 61.0547 70.5959C61.0117 70.5842 60.9844 70.6467 61.0234 70.6662Z" fill="#231F20"/>
<path d="M72.6679 70.5607C77.7265 70.2209 79.996 76.5021 84.9999 75.9709C85.1327 75.9552 85.1366 75.7677 84.9999 75.7599C80.2695 75.4396 77.5937 69.2326 72.6367 70.3498C72.5195 70.3771 72.5429 70.5685 72.6679 70.5607Z" fill="#231F20"/>
<path d="M73.3008 69.8576C76.3164 67.3537 79.1406 65.6818 82.9531 64.6349C83.0508 64.6076 83.0351 64.4357 82.9258 64.4474C79.2851 64.842 75.414 66.7756 73.1484 69.7052C73.0625 69.8146 73.1914 69.9474 73.3008 69.8576Z" fill="#231F20"/>
<path d="M86.6444 69.842C87.9726 68.7638 89.3124 67.7716 90.7812 66.8966C92.0741 66.131 93.5468 65.5568 94.7577 64.6779C94.8827 64.5881 94.8085 64.3888 94.6484 64.424C91.6601 65.0841 88.6679 67.6154 86.4452 69.6388C86.3046 69.7677 86.5077 69.9552 86.6444 69.842Z" fill="#231F20"/>
<path d="M87.66 69.8225C88.6717 71.2795 90.3397 72.9201 92.1795 73.1818C92.3514 73.2053 92.4569 72.9983 92.3006 72.8928C91.6092 72.424 90.8319 72.0998 90.1366 71.635C89.3084 71.0803 88.5741 70.3733 87.9295 69.6154C87.8045 69.4709 87.5506 69.6662 87.66 69.8225Z" fill="#231F20"/>
<path d="M36.6366 57.4396C38.617 55.5607 40.1248 52.5217 40.867 49.9123C40.9334 49.674 40.6053 49.549 40.4764 49.7482C39.7069 50.9396 39.0663 52.217 38.3827 53.4592C37.6795 54.7287 36.8631 55.9084 36.3397 57.2639C36.2733 57.4396 36.5155 57.5529 36.6366 57.4396Z" fill="#231F20"/>
<path d="M38.5859 52.9201C41.0976 49.6975 43.2617 46.217 45.5586 42.842C48.125 39.0764 51.0273 35.4592 53.2695 31.4982C53.3828 31.3029 53.1093 31.0803 52.9531 31.2561C47.3281 37.3811 42.1523 45.3615 38.3711 52.7561C38.3046 52.885 38.4843 53.049 38.5859 52.9201Z" fill="#231F20"/>
<path d="M53.9999 32.342C47.3905 38.1506 42.6679 46.7053 39.4023 54.7561C39.1835 55.299 40.0585 55.5295 40.2733 54.9943C43.7499 46.4982 48.7929 39.8107 54.2616 32.5451C54.3827 32.385 54.1366 32.2248 53.9999 32.342Z" fill="#231F20"/>
<path d="M45.9647 43.7678C44.8554 45.5295 43.9804 47.4358 42.9296 49.2365C41.91 50.9904 40.2733 52.7404 39.7265 54.6936C39.6679 54.9084 39.9179 55.1272 40.1171 54.9943C41.664 53.9553 42.535 52.0334 43.4725 50.4631C44.6796 48.4397 45.8397 46.2522 46.4569 43.9748C46.539 43.674 46.1249 43.51 45.9647 43.7678Z" fill="#231F20"/>
<path d="M42.1992 49.2873C40.9531 50.8147 39.1367 52.7326 38.9609 54.7717C38.9453 54.967 39.1992 55.0373 39.3203 54.9201C40.0664 54.2248 40.4492 53.3107 40.9414 52.4318C41.4726 51.4748 42.0507 50.5529 42.6914 49.6662C42.8984 49.3772 42.4218 49.01 42.1992 49.2873Z" fill="#231F20"/>
<path d="M52.6249 32.1506C52.8202 31.7873 53.0194 31.424 53.2186 31.0607C53.3827 30.7639 53.578 30.4826 53.6014 30.1389C53.6092 30.0256 53.4647 29.9787 53.3905 30.049C53.1444 30.2873 53.0545 30.6271 52.9295 30.9396C52.7811 31.3225 52.6288 31.7053 52.4803 32.0881C52.4452 32.174 52.5819 32.2287 52.6249 32.1506Z" fill="#231F20"/>
<path d="M53.0977 31.7404C53.3946 30.8186 53.7696 29.8732 53.9219 28.9123C53.9337 28.8186 53.8009 28.7404 53.754 28.842C53.3321 29.7326 53.1094 30.7287 52.8321 31.6662C52.7813 31.842 53.0469 31.9123 53.0977 31.7404Z" fill="#231F20"/>
<path d="M53.5274 30.0607C54.2149 23.7287 53.8789 17.4436 58.3672 12.3381C62.1563 8.0295 68.1172 5.49434 72.4297 1.70137C72.5938 1.55684 72.3828 1.30684 72.2031 1.4084C68.8516 3.2795 65.7656 5.65059 62.6133 7.83809C60.6172 9.22481 58.3047 10.6584 56.8555 12.6623C53.293 17.5803 52.6953 24.1662 53.4024 30.0607C53.4102 30.1428 53.5196 30.1428 53.5274 30.0607Z" fill="#231F20"/>
<path d="M72.2031 1.90059C73.7148 0.713092 71.7461 4.06856 71.7461 4.06856C71.043 5.58809 70.7461 7.32637 70.3789 8.94356C69.4726 12.924 68.3828 16.5373 66.3594 20.1232C62.2695 27.3732 55.4648 31.4045 49.2266 36.4904C49.0859 36.6037 49.2344 36.8576 49.3984 36.7912C55.8086 34.3186 61.3476 29.0998 65.4492 23.7053C67.6484 20.8147 69.1562 17.5139 70.168 14.0451C71.4687 9.592 71.1992 5.13497 74.0781 1.2209C74.1836 1.07247 74.043 0.83028 73.8633 0.845905C72.5117 0.966998 72.9687 0.744342 72.0039 1.70137C71.875 1.83028 72.0664 2.00606 72.2031 1.90059Z" fill="#231F20"/>
<path d="M53.8632 31.8967C56.3788 29.5959 57.6835 26.3967 59.2225 23.4162C61.3046 19.3889 62.9803 15.7209 65.8944 12.1779C66.0897 11.9436 65.8436 11.5529 65.5546 11.7365C62.6132 13.5881 61.035 16.6701 59.6288 19.7521C57.7147 23.9396 56.3358 27.9357 53.6796 31.7561C53.6014 31.8693 53.7694 31.9826 53.8632 31.8967Z" fill="#231F20"/>
<path d="M70.3826 5.38105C69.1053 6.80293 67.9373 8.32246 66.6717 9.75215C65.41 11.1779 63.7264 12.3693 62.6365 13.9045C62.5584 14.0178 62.7029 14.1232 62.8045 14.0764C64.4608 13.26 65.867 11.5295 67.1014 10.1857C68.4217 8.74824 69.617 7.21699 70.5076 5.4748C70.5467 5.40058 70.4451 5.31074 70.3826 5.38105Z" fill="#231F20"/>
<path d="M54.2578 25.1428C54.1132 25.0022 53.9804 24.8615 53.8086 24.7561C53.7422 24.717 53.664 24.7951 53.7031 24.8576C53.8086 25.0334 53.9492 25.1623 54.0898 25.3108C54.1953 25.424 54.3711 25.2483 54.2578 25.1428Z" fill="#231F20"/>
<path d="M53.4921 23.1506C53.1288 25.2756 52.7147 27.3264 52.0311 29.3772C51.1639 31.9904 49.5897 34.1818 48.5077 36.6857C48.4139 36.9006 48.6444 37.0842 48.8319 36.9357C52.6014 33.9123 54.1483 27.8342 53.8319 23.1975C53.8202 23.0139 53.5272 22.9475 53.4921 23.1506Z" fill="#231F20"/>
<path d="M53.6093 27.5725C53.1367 28.5803 52.6796 29.5842 52.2617 30.6115C51.8554 31.6115 51.2773 32.6662 51.2265 33.7561C51.2187 33.9123 51.4453 34.0217 51.5507 33.8889C52.1523 33.1232 52.3984 32.135 52.7148 31.2209C53.1171 30.0412 53.4804 28.8615 53.8281 27.6662C53.8632 27.5373 53.6679 27.4475 53.6093 27.5725Z" fill="#231F20"/>
<path d="M54.6914 30.1193C55.5273 28.9006 55.625 27.1857 55.8359 25.7482C56.0547 24.2326 56.0742 22.7014 55.9804 21.174C55.9765 21.1193 55.9023 21.1232 55.8984 21.174C55.7187 22.8732 55.5195 24.5686 55.2578 26.2561C55.0625 27.5295 54.5586 28.8225 54.6679 30.1115C54.6679 30.1232 54.6836 30.1272 54.6914 30.1193Z" fill="#231F20"/>
<path d="M57.4141 18.3615C57.4375 18.3615 57.4375 18.3225 57.4141 18.3225C57.3867 18.3225 57.3867 18.3615 57.4141 18.3615Z" fill="#231F20"/>
<path d="M59.875 22.3459C59.6523 18.5139 60.4336 15.3733 61.8945 11.8576C61.9336 11.7639 61.789 11.717 61.7383 11.7912C59.7226 14.799 59.1094 18.842 59.6836 22.3733C59.6992 22.4826 59.8828 22.4553 59.875 22.3459Z" fill="#231F20"/>
<path d="M64.7499 13.4865C65.0546 10.8967 66.0155 9.05683 67.5351 6.9748C67.6015 6.88496 67.4608 6.79511 67.3866 6.86152C65.5858 8.42011 64.6171 11.1428 64.6601 13.4865C64.664 13.5412 64.7421 13.5412 64.7499 13.4865Z" fill="#231F20"/>
<path d="M65.4414 12.2678C65.2539 11.9631 64.7539 12.5295 65.2539 12.7522C65.7305 12.9631 66.5078 12.1662 66.8203 11.9358C67.4883 11.4475 68.3516 10.9983 68.8477 10.3264C68.9063 10.2483 68.8086 10.1311 68.7188 10.1623C68.1055 10.3733 67.5899 10.8772 67.0703 11.26C66.8711 11.4084 65.5547 12.5647 65.3555 12.3342C65.3946 12.385 65.4766 12.3225 65.4414 12.2678Z" fill="#231F20"/>
<path d="M60.7304 20.8889C62.9413 19.5842 65.3593 18.2053 67.2108 16.4123C67.2811 16.342 67.1913 16.2443 67.1132 16.2834C64.7928 17.4045 62.6679 19.1975 60.6796 20.8264C60.6405 20.8537 60.6913 20.9123 60.7304 20.8889Z" fill="#231F20"/>
<path d="M55.8749 29.7639C57.7772 28.1936 59.7538 26.6037 61.4647 24.8225C61.5194 24.7678 61.4452 24.6623 61.3827 24.7092C59.3944 26.1975 57.5741 27.9631 55.7733 29.6662C55.7069 29.7287 55.8046 29.8186 55.8749 29.7639Z" fill="#231F20"/>
<path d="M73.4999 0.802936C73.0898 0.724811 72.9062 0.963092 72.6054 1.22872C72.3124 1.48653 71.9726 1.72091 71.828 2.092C71.7812 2.20528 71.9101 2.30294 72.0116 2.2795C72.3554 2.19747 72.6054 1.93184 72.8671 1.70919C73.1913 1.43184 73.5234 1.26387 73.5038 0.810748C73.5038 0.806842 73.5038 0.802936 73.4999 0.802936Z" fill="#231F20"/>
<path d="M35.1132 56.8654C33.039 58.7326 31.6757 61.467 30.1249 63.7756C28.3475 66.4162 26.1132 69.0217 25.0468 72.0451C24.9452 72.3264 25.3241 72.5022 25.5233 72.3225C27.6054 70.4045 28.9686 67.7522 30.4882 65.385C32.1874 62.7404 34.4882 60.0764 35.5038 57.0959C35.5858 56.8576 35.2772 56.7209 35.1132 56.8654Z" fill="#231F20"/>
<path d="M28.8163 53.9123C28.4179 55.5178 27.91 57.0803 27.3358 58.6311C26.6835 60.3928 25.6718 62.0178 25.0975 63.7951C25.0311 64.0022 25.3241 64.1779 25.4686 64.01C27.7225 61.385 28.5975 57.3069 29.0507 53.9787C29.0702 53.8303 28.8554 53.76 28.8163 53.9123Z" fill="#231F20"/>
<path d="M29.8163 53.9123C28.5781 56.6623 27.2226 59.51 26.3906 62.4162C26.2773 62.8068 26.8788 63.0764 27.0624 62.6975C28.3788 59.9748 29.2734 56.9475 30.1874 54.0685C30.2538 53.8498 29.9101 53.7014 29.8163 53.9123Z" fill="#231F20"/>
<path d="M28.8281 53.8576C28.0546 55.3459 27.375 56.885 26.7187 58.4279C26.2187 59.5959 25.4218 60.8733 25.496 62.1623C25.5078 62.3029 25.6718 62.3772 25.7773 62.2756C26.7265 61.3733 26.996 59.9358 27.4335 58.7287C28.0078 57.1467 28.5625 55.5569 29.0117 53.9358C29.0429 53.8264 28.8828 53.7561 28.8281 53.8576Z" fill="#231F20"/>
<path d="M27.5078 56.2092C26.4101 58.2756 25.3007 60.3381 24.246 62.4318C23.7773 63.3576 22.6406 64.592 23.457 65.5334C23.5468 65.6389 23.707 65.6428 23.8242 65.5803C24.1054 65.4357 24.1054 65.3771 24.1328 65.0646C24.1406 64.9826 24.0703 64.8928 23.9921 64.8771C23.9453 64.8693 23.9023 64.8615 23.8554 64.8498C23.7148 64.8224 23.5664 65.006 23.7031 65.1154C23.7304 65.1389 27.6874 57.2482 28.0351 56.5139C28.1992 56.1662 27.6953 55.8576 27.5078 56.2092Z" fill="#231F20"/>
<path d="M27.0782 60.4475C25.9454 62.342 24.7071 64.2092 23.7305 66.1897C23.5157 66.6311 24.1133 67.1858 24.4571 66.7483C24.7032 66.4397 24.9571 66.1311 25.1954 65.8147C25.3282 65.6389 25.0821 65.4787 24.9258 65.5451C24.5782 65.6975 24.2383 65.8654 23.8985 66.0256C24.1094 66.2365 24.3165 66.4475 24.5274 66.6584C25.6446 64.7483 26.5235 62.6779 27.4805 60.6858C27.6094 60.4162 27.2344 60.1858 27.0782 60.4475Z" fill="#231F20"/>
<path d="M27.2109 62.3342C26.8203 63.0685 26.3867 63.7678 25.9023 64.4436C25.4218 65.1193 24.746 65.7053 24.4531 66.4943C24.3828 66.6779 24.6054 66.7912 24.75 66.7248C25.457 66.3811 25.8984 65.6428 26.3203 65.0021C26.8242 64.2365 27.246 63.4123 27.6132 62.5725C27.7304 62.3029 27.3515 62.0646 27.2109 62.3342Z" fill="#231F20"/>
<path d="M28.9766 39.799C29.2774 44.7404 28.6914 49.4904 28.6133 54.4045C28.6094 54.6349 28.9297 54.6584 29 54.4553C30.5782 49.8654 30.1875 44.4474 29.1758 39.7717C29.1524 39.6623 28.9688 39.6857 28.9766 39.799Z" fill="#231F20"/>
<path d="M30.3203 48.3107C29.6367 50.842 28.7891 53.3732 28.5117 55.9865C28.5 56.131 28.707 56.1389 28.75 56.0217C29.625 53.5529 29.9492 50.9045 30.418 48.3342C30.4297 48.2717 30.3398 48.2443 30.3203 48.3107Z" fill="#231F20"/>
<path d="M25.3124 35.0061C26.6483 37.8772 27.3788 40.842 28.2772 43.8576C28.3085 43.9709 28.4999 43.9514 28.4882 43.8264C28.2147 40.6897 26.9296 37.674 25.453 34.924C25.4022 34.8303 25.2694 34.9123 25.3124 35.0061Z" fill="#231F20"/>
<path d="M24.9295 35.3889C25.4295 36.8264 26.0116 38.2365 26.4803 39.6897C27.0233 41.3537 27.3592 43.0959 27.9998 44.7248C28.0623 44.8772 28.3163 44.8693 28.3123 44.6818C28.2225 41.5256 26.7069 37.9748 24.9842 35.3654C24.9686 35.3342 24.9139 35.3537 24.9295 35.3889Z" fill="#231F20"/>
<path d="M24.9178 39.8303C25.3202 41.9787 25.7733 44.3029 26.6366 46.3186C26.6874 46.4436 26.91 46.385 26.8944 46.2483C26.6327 44.0725 25.8632 41.8303 25.1366 39.7678C25.0897 39.6311 24.8905 39.6858 24.9178 39.8303Z" fill="#231F20"/>
<path d="M24.8397 41.4709C25.2577 42.8107 25.578 44.2404 26.1874 45.51C26.246 45.6271 26.4022 45.5373 26.3866 45.4279C26.1639 44.049 25.6093 42.7014 25.1913 41.3732C25.121 41.1506 24.7655 41.2443 24.8397 41.4709Z" fill="#231F20"/>
<path d="M21.5897 45.0061C21.0507 47.1701 21.0507 50.1623 22.285 52.1037C22.4061 52.2912 22.7499 52.2326 22.7304 51.9826C22.66 50.8225 22.3124 49.717 22.1639 48.5647C22.0155 47.4045 22.0702 46.2365 22.0741 45.0686C22.0741 44.7912 21.6561 44.7326 21.5897 45.0061Z" fill="#231F20"/>
<path d="M22.2461 45.549C22.3829 46.4982 22.5235 47.4436 22.668 48.3928C22.7852 49.1896 22.8204 50.1076 23.2344 50.8068C23.2891 50.8967 23.4454 50.8889 23.4649 50.7756C23.6016 50.0607 23.375 49.3693 23.25 48.6545C23.0586 47.5803 22.8243 46.5178 22.6094 45.4475C22.5586 45.2053 22.211 45.3107 22.2461 45.549Z" fill="#231F20"/>
<path d="M23.2461 45.1115C23.4414 45.9162 23.5625 46.7326 23.711 47.5451C23.8555 48.3498 23.7383 49.26 24.1094 49.9943C24.1563 50.0842 24.3203 50.0959 24.3633 49.9943C24.668 49.2795 24.4571 48.4826 24.336 47.7365C24.1797 46.7795 23.8399 45.9045 23.4414 45.0295C23.3907 44.9162 23.2149 44.9982 23.2461 45.1115Z" fill="#231F20"/>
<path d="M24.3671 45.8928C24.4101 46.4709 24.453 47.0529 24.496 47.6311C24.5351 48.1584 24.5155 48.7521 24.8163 49.2014C24.8905 49.3186 25.0624 49.299 25.1054 49.1662C25.2499 48.7092 25.1132 48.2717 25.0273 47.8107C24.9023 47.1584 24.7616 46.5061 24.6249 45.8537C24.5976 45.7092 24.3554 45.7404 24.3671 45.8928Z" fill="#231F20"/>
<path d="M25.2305 44.3107C25.4453 45.4162 25.6015 46.5686 26.1289 47.5803C26.2265 47.7717 26.5351 47.6857 26.5273 47.4748C26.4883 46.3342 26.0547 45.2482 25.6953 44.1818C25.5976 43.885 25.1758 44.0061 25.2305 44.3107Z" fill="#231F20"/>
<path d="M54.7225 18.2873C54.3006 19.8381 54.0428 21.424 53.7655 23.0021C53.5155 24.4084 53.1014 25.8732 53.3553 27.2912C53.3944 27.5061 53.7225 27.5412 53.8163 27.3537C54.3631 26.2482 54.4022 25.0217 54.5311 23.8029C54.7225 21.9826 54.9569 20.1584 54.9842 18.3225C54.9842 18.174 54.7616 18.1467 54.7225 18.2873Z" fill="#231F20"/>
<path d="M55.6329 19.1154C55.2149 20.5061 54.9844 21.9514 54.6446 23.3615C54.3047 24.7873 53.8008 26.2092 53.6368 27.6662C53.6172 27.842 53.879 27.8928 53.9532 27.7522C55.2774 25.3576 55.8946 21.8733 55.8555 19.1467C55.8516 19.0178 55.668 18.9904 55.6329 19.1154Z" fill="#231F20"/>
<path d="M55.2461 25.1897C54.9063 26.6428 54.3829 28.1584 54.3282 29.6545C54.3243 29.8147 54.5391 29.8225 54.5899 29.6897C55.1172 28.3068 55.2227 26.7092 55.4766 25.2522C55.504 25.1037 55.2813 25.0334 55.2461 25.1897Z" fill="#231F20"/>
<path d="M59.2967 10.8498C56.867 12.4709 54.1522 16.5568 55.0428 19.6193C55.1014 19.8147 55.4061 19.885 55.5037 19.6779C56.1873 18.2678 56.3319 16.6115 56.9608 15.1428C57.5936 13.674 58.5858 12.3654 59.5311 11.0842C59.6366 10.9475 59.4373 10.76 59.2967 10.8498Z" fill="#231F20"/>
<path d="M59.0741 11.8498C58.0389 12.9592 57.3319 14.3654 56.621 15.6975C55.9882 16.8811 55.0546 18.1154 54.9686 19.4787C54.9491 19.7404 55.2655 19.8068 55.4296 19.674C56.4608 18.842 56.9218 17.3732 57.5077 16.2131C58.1874 14.8576 58.9413 13.4475 59.2538 11.9553C59.2733 11.8537 59.1483 11.7678 59.0741 11.8498Z" fill="#231F20"/>
<path d="M58.9256 13.7756C58.1327 14.6115 57.5037 15.51 56.9686 16.5334C56.5233 17.3889 55.867 18.5725 56.1092 19.5412C56.1444 19.6779 56.3397 19.7365 56.4373 19.6271C57.0037 18.9904 57.117 18.0178 57.453 17.2443C57.9295 16.1506 58.617 15.1271 59.3475 14.1936C59.578 13.9006 59.1991 13.4865 58.9256 13.7756Z" fill="#231F20"/>
<path d="M58.6523 16.0998C58.2695 16.8068 57.8906 17.5178 57.5117 18.2287C57.1836 18.8459 56.582 19.5686 56.625 20.2873C56.6328 20.4592 56.8164 20.5842 56.9765 20.4904C57.539 20.1623 57.75 19.4475 58.0508 18.8889C58.4765 18.092 58.9023 17.2912 59.3281 16.4943C59.5664 16.049 58.8906 15.6506 58.6523 16.0998Z" fill="#231F20"/>
<path d="M58.7578 17.3732C58.4571 17.8693 58.0977 18.3342 57.7813 18.8186C57.4922 19.26 57.0782 19.7834 57.0821 20.3264C57.0821 20.5217 57.3008 20.6506 57.4727 20.549C57.8828 20.3068 58.0977 19.799 58.3047 19.3772C58.5977 18.7912 58.8399 18.1779 59.1407 17.5998C59.2735 17.3459 58.9102 17.1311 58.7578 17.3732Z" fill="#231F20"/>
<path d="M62.625 20.3342C62.0391 21.2795 61.4141 22.4826 61.3867 23.6193C61.3867 23.7365 61.5625 23.7912 61.6172 23.6818C62.1211 22.6584 62.3594 21.467 62.7734 20.4006C62.8086 20.3107 62.6719 20.26 62.625 20.3342Z" fill="#231F20"/>
<path d="M64.1405 18.6584C63.3475 19.9982 62.4334 21.6545 62.3553 23.2404C62.3514 23.3225 62.4725 23.3576 62.5077 23.2834C63.203 21.8068 63.5819 20.2443 64.4022 18.8107C64.4998 18.6389 64.2381 18.4865 64.1405 18.6584Z" fill="#231F20"/>
<path d="M65.4219 18.6584C64.4883 19.5607 63.3047 21.0178 63.4063 22.3928C63.4141 22.4709 63.5195 22.51 63.5625 22.4357C63.8789 21.8967 64.0156 21.2912 64.2813 20.7248C64.6094 20.0256 65.082 19.4084 65.6211 18.8615C65.75 18.7287 65.5547 18.5334 65.4219 18.6584Z" fill="#231F20"/>
<path d="M66.2578 17.9006C65.5117 19.2092 64.7148 20.4943 64.0546 21.8498C63.9335 22.092 64.2695 22.2912 64.4179 22.0607C64.6835 21.6545 64.9531 21.2482 65.1953 20.8303C65.246 20.7443 65.1289 20.6545 65.0624 20.7248C64.7226 21.0725 64.4062 21.4396 64.0859 21.8068C64.1953 21.8928 64.3085 21.9748 64.4179 22.0607C65.1601 20.7443 65.7656 19.3576 66.4218 17.9943C66.4726 17.8889 66.3164 17.7912 66.2578 17.9006Z" fill="#231F20"/>
<path d="M66.6717 17.4943C66.3045 18.1545 65.953 18.8186 65.6092 19.4865C65.2694 20.1467 64.8202 20.8693 64.7186 21.6115C64.703 21.7014 64.8084 21.7912 64.8866 21.7092C65.41 21.1623 65.6678 20.3889 65.992 19.7131C66.3241 19.0178 66.6209 18.3107 66.9139 17.5998C66.9725 17.4553 66.742 17.3654 66.6717 17.4943Z" fill="#231F20"/>
<path d="M69.2734 10.2326C68.8124 11.6467 68.332 13.0529 67.7617 14.4279C67.121 15.9865 66.2226 17.4904 65.7382 19.1037C65.6953 19.26 65.9023 19.3303 65.9882 19.2092C67.6992 16.7287 68.9374 13.2248 69.3828 10.2639C69.3945 10.1897 69.2968 10.1584 69.2734 10.2326Z" fill="#231F20"/>
<path d="M69.6641 10.1897C69.2032 12.8498 68.1016 15.3068 67.4024 17.8967C67.3751 17.9982 67.5157 18.049 67.5704 17.967C69.1016 15.674 69.543 12.8928 69.8829 10.2209C69.8985 10.0959 69.6876 10.0686 69.6641 10.1897Z" fill="#231F20"/>
<path d="M34.746 67.7287C32.4686 70.1701 30.496 73.6662 30.2577 77.0568C30.2499 77.1467 30.371 77.1467 30.3983 77.0764C31.7538 73.8225 32.9217 70.799 34.8827 67.8381C34.9413 67.7522 34.8124 67.6545 34.746 67.7287Z" fill="#231F20"/>
<path d="M35.0742 68.8771C33.2969 70.6779 31.25 73.5685 31.2305 76.2092C31.2305 76.3459 31.4297 76.4084 31.4961 76.2795C32.082 75.1428 32.3516 73.8576 32.918 72.6935C33.5469 71.4006 34.3711 70.1935 35.2617 69.0685C35.3672 68.9357 35.1992 68.7521 35.0742 68.8771Z" fill="#231F20"/>
<path d="M34.9219 70.4474C34.2969 71.6818 33.6758 72.9162 33.0508 74.1506C32.6914 74.8654 31.9297 75.7677 32.1641 76.5959C32.1914 76.6935 32.2774 76.7482 32.3789 76.756C32.6328 76.7756 32.7578 76.6662 32.8282 76.424C32.836 76.3849 32.8282 76.3342 32.7969 76.3107C32.7657 76.2834 32.7383 76.2599 32.711 76.2365C32.6485 76.1857 32.5196 76.2326 32.5586 76.3263C32.375 75.8888 33.625 73.9982 33.8438 73.549C34.3203 72.5842 34.8008 71.6193 35.2774 70.6545C35.3907 70.4162 35.0391 70.2092 34.9219 70.4474Z" fill="#231F20"/>
<path d="M36.2031 70.5139C35.6835 71.4006 35.2148 72.3147 34.7656 73.2365C34.5195 73.7443 33.7773 74.7131 33.9491 75.3381C34.1015 75.8928 34.8437 75.6936 34.707 75.1701C34.6913 75.1154 34.6406 75.0764 34.5859 75.0764C34.5507 75.0764 34.5156 75.0764 34.4843 75.0803C34.3866 75.0803 34.3398 75.2209 34.4335 75.2678C34.3202 75.2053 36.2382 71.092 36.4218 70.6076C36.4726 70.4787 36.2695 70.4006 36.2031 70.5139Z" fill="#231F20"/>
<path d="M37.293 70.2404C36.293 71.3615 35.5938 72.6623 35.1953 74.1076C35.1367 74.3186 35.3828 74.5373 35.5781 74.4045C36.207 73.9787 36.6524 73.3615 36.8789 72.6389C36.8984 72.5686 36.7969 72.5256 36.7617 72.592C36.418 73.2404 35.9727 73.635 35.3125 73.9514C35.4414 74.049 35.5703 74.1506 35.6992 74.2482C36.0742 72.8576 36.6758 71.5764 37.4883 70.3889C37.5664 70.2717 37.3867 70.135 37.293 70.2404Z" fill="#231F20"/>
<path d="M36.7889 71.2639C36.5038 72.2365 36.3827 73.2639 36.5428 74.2678C36.5819 74.51 36.9334 74.4787 36.9959 74.2678C37.2928 73.217 37.7303 72.2561 38.3866 71.3733C38.4178 71.3381 38.3553 71.2912 38.3241 71.3264C37.5741 72.1584 36.9608 73.0998 36.5428 74.1467C36.6952 74.1662 36.8475 74.1858 37.0037 74.2053C36.9452 73.2365 36.9803 72.3342 37.2537 71.3928C37.3397 71.0959 36.8748 70.9709 36.7889 71.2639Z" fill="#231F20"/>
<path d="M36.9922 71.8889C37.1602 72.2287 37.2734 72.5686 37.3477 72.9397C37.4336 73.3615 37.3789 73.7873 37.4336 74.2131C37.4492 74.3186 37.6055 74.4006 37.6641 74.2756C38.0469 73.467 37.7461 72.4279 37.3672 71.6701C37.2422 71.4162 36.8633 71.6389 36.9922 71.8889Z" fill="#231F20"/>
<path d="M51.3789 62.1349C47.582 63.8224 44.1758 67.0568 41.918 70.5021C41.8633 70.5841 41.9922 70.6857 42.0586 70.6076C44.9258 67.381 48.0117 64.8302 51.418 62.2052C51.4609 62.174 51.4258 62.1115 51.3789 62.1349Z" fill="#231F20"/>
<path d="M50.0859 62.8107C47.1953 64.9436 44.289 67.8459 43.0234 71.2873C42.9882 71.385 43.1289 71.4279 43.1796 71.3537C45.3203 68.2795 47.2578 65.3615 50.2031 62.9592C50.2851 62.8928 50.1757 62.7443 50.0859 62.8107Z" fill="#231F20"/>
<path d="M48.8476 63.9318C45.9023 65.0803 42.6875 67.7443 41.8711 70.9318C41.8203 71.1233 42.0781 71.2248 42.1836 71.0647C43.0976 69.6623 43.8242 68.2717 44.9648 67.0139C46.0781 65.7912 47.4609 64.842 48.8984 64.0529C48.9648 64.0178 48.9218 63.9045 48.8476 63.9318Z" fill="#231F20"/>
<path d="M44.6992 66.3615C43.8086 67.2209 42.9648 68.1193 42.1641 69.0607C41.5742 69.7599 40.6172 70.6701 40.4492 71.5841C40.4297 71.6896 40.5312 71.7873 40.6328 71.7287C41.4531 71.2404 41.957 70.1779 42.5469 69.4435C43.3242 68.4826 44.1719 67.5802 45.0547 66.7131C45.2812 66.4865 44.9297 66.1388 44.6992 66.3615Z" fill="#231F20"/>
<path d="M44.2265 67.1311C42.828 68.8147 41.2304 70.5178 40.1093 72.4006C39.9804 72.6193 40.2851 72.8615 40.4609 72.674C41.9843 71.0881 43.1952 69.1037 44.4491 67.3068C44.5429 67.174 44.328 67.01 44.2265 67.1311Z" fill="#231F20"/>
<path d="M43.1561 69.2756C41.914 70.256 40.3944 71.8654 39.9999 73.4435C39.9608 73.5998 40.1483 73.7131 40.2616 73.5998C40.8163 73.0529 41.2108 72.3459 41.664 71.717C42.2108 70.9592 42.8358 70.2638 43.4257 69.5412C43.5819 69.3498 43.3515 69.1232 43.1561 69.2756Z" fill="#231F20"/>
<path d="M46.4296 62.7287C42.6288 63.7131 38.9257 66.5295 36.6249 69.6623C36.5624 69.7482 36.6952 69.8459 36.7694 69.7756C38.2733 68.2756 39.7577 66.8576 41.496 65.6193C43.0546 64.5061 44.789 63.7248 46.4608 62.8068C46.5038 62.7834 46.4725 62.7209 46.4296 62.7287Z" fill="#231F20"/>
<path d="M45.1991 62.2677C42.285 63.3459 39.0467 65.2912 37.3514 67.9826C37.2733 68.1037 37.4413 68.2131 37.5389 68.1271C38.8123 67.0021 39.9178 65.7795 41.3045 64.7638C42.5428 63.8615 43.9061 63.1388 45.3006 62.506C45.4334 62.4435 45.3358 62.217 45.1991 62.2677Z" fill="#231F20"/>
<path d="M42.8555 62.9279C40.293 64.1232 37.3789 66.0294 35.8633 68.4904C35.8086 68.5802 35.9336 68.674 36.0078 68.6037C36.9805 67.674 37.8164 66.6232 38.836 65.7287C40.0664 64.6505 41.461 63.7677 42.8985 62.9982C42.9453 62.9748 42.9063 62.9045 42.8555 62.9279Z" fill="#231F20"/>
<path d="M39.1132 65.1623C37.2577 66.1232 35.3554 67.5021 34.2265 69.2951C34.1288 69.4474 34.3554 69.6232 34.4726 69.4865C35.914 67.8537 37.2694 66.3888 39.1874 65.2873C39.2655 65.2404 39.1952 65.1193 39.1132 65.1623Z" fill="#231F20"/>
<path d="M38.3164 64.7873C36.8516 65.7365 35.5117 66.9592 34.6953 68.5217C34.6484 68.6115 34.7734 68.7248 34.8438 68.6389C35.9297 67.2951 37.0508 66.0568 38.5 65.0998C38.6914 64.9709 38.5156 64.6584 38.3164 64.7873Z" fill="#231F20"/>
<path d="M26.1328 80.4748C27.496 81.26 28.8867 81.9943 30.3164 82.6545C30.4062 82.6975 30.4843 82.5725 30.3945 82.5217C29.0546 81.7014 27.6679 80.9553 26.2578 80.26C26.1132 80.1858 25.9882 80.3967 26.1328 80.4748Z" fill="#231F20"/>
<path d="M26.9451 79.6584C29.0623 80.9279 31.2264 82.1857 33.4725 83.2091C33.5584 83.2482 33.6287 83.1349 33.5467 83.0841C31.4686 81.756 29.2303 80.6271 27.0155 79.5412C26.9373 79.506 26.8748 79.6115 26.9451 79.6584Z" fill="#231F20"/>
<path d="M28.203 78.7717C29.9413 79.8615 31.7381 80.8967 33.5741 81.8225C33.6131 81.842 33.6483 81.7873 33.6092 81.76C31.9022 80.6193 30.117 79.5646 28.3084 78.5842C28.1874 78.5178 28.0858 78.6975 28.203 78.7717Z" fill="#231F20"/>
<path d="M29.7852 78.8302C31.8243 80.1349 33.8282 81.5646 35.9805 82.6818C36.0665 82.7248 36.129 82.6115 36.0548 82.5529C34.129 81.0802 31.9805 79.8732 29.9298 78.5842C29.7735 78.4865 29.6329 78.7326 29.7852 78.8302Z" fill="#231F20"/>
<path d="M30.6641 77.967C31.5664 78.3342 32.418 78.7834 33.2344 79.3185C34.0586 79.8615 34.711 80.6076 35.5196 81.1545C35.5821 81.1974 35.6641 81.1154 35.6211 81.0529C34.5821 79.4865 32.4141 78.4084 30.7266 77.7326C30.5821 77.674 30.5196 77.9084 30.6641 77.967Z" fill="#231F20"/>
<path d="M31.4218 77.5841C32.9882 78.7873 34.5703 80.2404 36.3203 81.1623C36.414 81.213 36.5078 81.0959 36.4336 81.0216C35.0312 79.6037 33.1757 78.5099 31.5586 77.3537C31.414 77.2521 31.289 77.4826 31.4218 77.5841Z" fill="#231F20"/>
<path d="M32.746 77.4279C33.7812 78.5763 34.9609 79.5959 36.3632 80.2834C36.4414 80.3224 36.5078 80.2131 36.4335 80.1623C35.1757 79.2873 33.9296 78.4084 32.8164 77.3537C32.7695 77.3107 32.7031 77.3771 32.746 77.4279Z" fill="#231F20"/>
<path d="M30.1913 81.2561C33.4999 83.4787 38.0351 85.0764 42.0546 84.424C42.164 84.4045 42.164 84.2287 42.0546 84.2092C37.8437 83.4865 34.2187 82.9475 30.2929 81.0803C30.1757 81.0256 30.082 81.1858 30.1913 81.2561Z" fill="#231F20"/>
<path d="M32.5352 81.8303C36.0586 84.0099 40.6641 85.6428 44.8555 85.3615C44.9883 85.3537 45.0313 85.1506 44.8867 85.1193C40.6016 84.1701 36.7227 83.3967 32.6563 81.6193C32.5157 81.5607 32.3985 81.7443 32.5352 81.8303Z" fill="#231F20"/>
<path d="M33.4102 81.7443C36.4922 83.3654 40.1445 84.7053 43.6524 84.8225C43.8008 84.8264 43.8242 84.6115 43.6875 84.5725C40.25 83.592 36.832 82.8654 33.4531 81.6428C33.3906 81.6193 33.3516 81.717 33.4102 81.7443Z" fill="#231F20"/>
<path d="M34.7149 80.7873C37.4375 81.8147 40.0899 82.9904 42.793 84.0686C42.9219 84.1194 42.9883 83.924 42.8828 83.8537C40.4609 82.299 37.5664 81.2287 34.7695 80.5842C34.6367 80.5569 34.5899 80.7404 34.7149 80.7873Z" fill="#231F20"/>
<path d="M35.9217 80.799C38.7772 81.9904 41.8241 83.3224 44.8514 83.9787C44.9647 84.0021 45.0506 83.842 44.9334 83.7834C42.1522 82.3928 38.9452 81.5178 35.9608 80.6545C35.867 80.6232 35.8358 80.7638 35.9217 80.799Z" fill="#231F20"/>
<path d="M39.8788 81.7404C42.1093 83.0802 44.7264 83.9318 47.285 84.342C47.3905 84.3576 47.4374 84.2052 47.3319 84.174C44.8046 83.4279 42.4022 82.5138 39.9491 81.5685C39.8475 81.5256 39.7889 81.6857 39.8788 81.7404Z" fill="#231F20"/>
<path d="M42.8046 83.2561C45.0937 83.7014 47.4062 84.1389 49.7265 84.3576C49.8125 84.3654 49.832 84.2287 49.75 84.2092C47.4765 83.6897 45.1406 83.385 42.8281 83.0959C42.7343 83.0803 42.7148 83.2365 42.8046 83.2561Z" fill="#231F20"/>
<path d="M73.6366 79.9279C70.0546 81.4084 66.4843 82.8772 63.0077 84.592C62.9452 84.6193 62.9882 84.7248 63.0546 84.7014C66.6679 83.3029 70.1678 81.6701 73.6796 80.0334C73.7382 80.0061 73.6952 79.9045 73.6366 79.9279Z" fill="#231F20"/>
<path d="M75.6054 79.3966C72.6757 80.1037 69.5937 81.3654 67.0781 83.0334C66.9687 83.1076 67.0624 83.2638 67.1796 83.2091C69.9999 81.9552 72.7812 80.6701 75.6288 79.4787C75.6757 79.4591 75.6601 79.3849 75.6054 79.3966Z" fill="#231F20"/>
<path d="M76.8203 79.9006C75.7539 80.1232 74.6992 80.4045 73.6953 80.842C73.1289 81.092 72.5781 81.3576 72.0352 81.6506C71.918 81.717 70.3828 82.6467 70.3633 82.5178C70.375 82.592 70.4844 82.5803 70.5039 82.5178C70.5117 82.4826 70.5195 82.4475 70.5312 82.4162C70.5469 82.3498 70.5 82.3029 70.4375 82.2951C70.2422 82.2756 70.2695 82.2795 70.082 82.3693C70.043 82.3889 70.0156 82.4396 70.0156 82.4826C70.0156 82.5295 70.0156 82.5803 70.0156 82.6271C70.0156 82.6779 70.043 82.7287 70.0859 82.7521C70.8125 83.1506 71.5977 82.2834 72.1953 81.924C73.6406 81.0607 75.2344 80.4553 76.8555 80.0256C76.9414 80.0061 76.9023 79.8811 76.8203 79.9006Z" fill="#231F20"/>
<path d="M75.2422 80.7522C74.4141 81.1115 73.5898 81.4748 72.7656 81.8459C72.7305 81.8615 72.7578 81.924 72.793 81.9084C73.6367 81.5686 74.4726 81.217 75.3086 80.8615C75.3828 80.8303 75.3164 80.7209 75.2422 80.7522Z" fill="#231F20"/>
<path d="M70.7929 80.7326C67.8827 82.2092 64.9921 82.7912 61.8514 83.4983C61.7694 83.5178 61.7889 83.6428 61.871 83.6428C64.9882 83.5686 68.1366 82.2873 70.8397 80.8147C70.8944 80.7873 70.8475 80.7053 70.7929 80.7326Z" fill="#231F20"/>
<path d="M72.3593 79.3654C68.6914 80.4474 64.9414 81.4748 61.3945 82.9084C61.2929 82.9513 61.3281 83.1076 61.4414 83.0803C65.1523 82.1388 68.7812 80.7443 72.3789 79.4474C72.4296 79.4279 72.4101 79.3498 72.3593 79.3654Z" fill="#231F20"/>
<path d="M72.3165 78.8654C69.1329 79.8889 65.8829 80.635 62.6915 81.6115C62.6133 81.635 62.6251 81.76 62.711 81.7522C66.0196 81.4475 69.336 80.3108 72.3633 78.9748C72.4258 78.9475 72.3829 78.842 72.3165 78.8654Z" fill="#231F20"/>
<path d="M69.1055 78.9318C66.8204 79.5959 64.3516 80.3693 62.2383 81.467C62.1251 81.5217 62.2071 81.6896 62.3204 81.6623C64.6329 81.092 66.9883 80.0373 69.1485 79.0295C69.2032 79.0021 69.1641 78.9162 69.1055 78.9318Z" fill="#231F20"/>
<path d="M67.0389 78.7677C65.1912 79.342 63.1522 79.756 61.41 80.6076C61.2967 80.6584 61.3826 80.8068 61.4881 80.7912C63.3904 80.4943 65.2967 79.674 67.1287 79.0959C67.3397 79.0295 67.2498 78.7013 67.0389 78.7677Z" fill="#231F20"/>
<path d="M67.4219 77.6623C65.5976 78.6193 63.5898 79.1232 61.7734 80.0451C61.6953 80.0881 61.7305 80.2248 61.8203 80.217C63.8047 80.0295 65.875 78.9162 67.6211 78.0021C67.8437 77.8849 67.6445 77.549 67.4219 77.6623Z" fill="#231F20"/>
<path d="M67.0546 77.5998C65.582 78.0373 64.0273 78.3693 62.6367 79.0295C62.5468 79.0724 62.5859 79.2365 62.6874 79.2209C64.2109 79.0177 65.6992 78.4552 67.1718 78.0216C67.4414 77.9396 67.3281 77.5177 67.0546 77.5998Z" fill="#231F20"/>
<path d="M63.0742 81.4787C58.3554 82.3694 53.625 83.1233 48.8984 83.9475C48.8086 83.9631 48.8281 84.1154 48.9218 84.1076C53.6836 83.8029 58.5117 82.8733 63.0976 81.5725C63.1562 81.5569 63.1328 81.4709 63.0742 81.4787Z" fill="#231F20"/>
<path d="M62.2108 82.1115C58.453 82.9592 54.6601 83.5217 50.8905 84.2795C50.6288 84.3303 50.6874 84.7561 50.953 84.7443C54.7655 84.5998 58.6913 83.5764 62.2538 82.26C62.3437 82.2248 62.3085 82.092 62.2108 82.1115Z" fill="#231F20"/>
<path d="M62.2031 82.4787C60.8477 82.7443 59.5078 83.0608 58.1563 83.342C56.8359 83.6233 55.3008 83.592 54.0977 84.2209C53.9805 84.2795 54.0117 84.467 54.1328 84.4943C55.3125 84.7873 56.5977 84.3928 57.7734 84.1662C59.3281 83.8693 60.8399 83.4592 62.3086 82.8576C62.5391 82.7639 62.457 82.4279 62.2031 82.4787Z" fill="#231F20"/>
<path d="M62.9803 82.8693C61.8006 83.3107 60.6092 83.6935 59.3827 83.9865C58.3124 84.2365 57.0624 84.0841 56.1014 84.6232C55.9881 84.6857 55.9725 84.8888 56.1014 84.9513C57.0272 85.3732 58.16 85.0412 59.1249 84.8302C60.5467 84.5138 61.8749 83.9279 63.0897 83.1232C63.2108 83.0412 63.1366 82.8107 62.9803 82.8693Z" fill="#231F20"/>
<path d="M61.7735 83.7678C60.4688 84.3811 59.1758 84.4162 57.7813 84.6389C57.6602 84.6584 57.668 84.8498 57.7813 84.8772C59.1719 85.1897 60.6719 84.5998 61.8555 83.9084C61.9492 83.8576 61.8672 83.7248 61.7735 83.7678Z" fill="#231F20"/>
<path d="M61.4492 80.2365C58.3749 81.0841 55.2265 81.5685 52.1406 82.3459C52.0234 82.3771 52.0468 82.5646 52.1718 82.5607C55.3476 82.3615 58.496 81.4318 61.5117 80.467C61.6601 80.4201 61.5976 80.1935 61.4492 80.2365Z" fill="#231F20"/>
<path d="M59.4335 80.2717C56.7226 80.7287 53.8827 81.1896 51.2812 82.0764C51.1601 82.1193 51.1718 82.3303 51.3124 82.3146C54.0507 81.9553 56.8046 81.1193 59.4452 80.3264C59.4843 80.3146 59.4687 80.2678 59.4335 80.2717Z" fill="#231F20"/>
<path d="M57.375 79.7365C55.0782 80.1076 52.6876 80.5842 50.4961 81.3771C50.3985 81.4123 50.4063 81.5842 50.5235 81.5724C52.8438 81.2834 55.1954 80.6271 57.4219 79.9123C57.5391 79.8732 57.4883 79.717 57.375 79.7365Z" fill="#231F20"/>
<path d="M56.5742 78.967C54.7148 79.3264 52.5937 79.7951 50.8906 80.6271C50.8046 80.6701 50.8398 80.8303 50.9414 80.8186C52.8281 80.5842 54.8593 79.8264 56.6132 79.1193C56.707 79.0803 56.6757 78.9475 56.5742 78.967Z" fill="#231F20"/>
<path d="M56.6171 78.3068C54.8866 78.7677 52.9335 79.1154 51.3319 79.9396C51.2226 79.9943 51.3085 80.1388 51.4101 80.1232C53.1835 79.8732 54.9765 79.0334 56.6483 78.4162C56.7187 78.3927 56.6913 78.2873 56.6171 78.3068Z" fill="#231F20"/>
<path d="M54.5352 78.4982C53.3516 78.6975 51.9688 78.8615 50.8789 79.3693C50.7891 79.4123 50.836 79.5529 50.9297 79.5529C52.1289 79.5139 53.4414 79.0334 54.5821 78.6779C54.6993 78.6389 54.6485 78.4787 54.5352 78.4982Z" fill="#231F20"/>
<path d="M52.5117 78.5217C51.5898 78.6779 50.5898 78.7482 49.707 79.0607C49.5937 79.0998 49.6094 79.2717 49.7344 79.2717C50.6875 79.2756 51.668 79.0138 52.6016 78.8576C52.8242 78.8185 52.7305 78.4826 52.5117 78.5217Z" fill="#231F20"/>
<path d="M89.8436 73.8889C85.6366 75.4436 81.1756 76.924 77.2342 79.0764C77.1092 79.1467 77.1952 79.3498 77.3319 79.3107C81.6327 78.0217 85.828 75.8889 89.8866 73.9943C89.9452 73.967 89.9022 73.8654 89.8436 73.8889Z" fill="#231F20"/>
<path d="M89.8281 73.0334C85.8046 75.1233 81.4453 77.0256 77.6054 79.4123C77.4609 79.5022 77.5546 79.7365 77.7226 79.6897C82.0156 78.5529 86.414 75.8693 89.9531 73.2483C90.0859 73.1545 89.9726 72.9553 89.8281 73.0334Z" fill="#231F20"/>
<path d="M87.8047 75.0529C84.5078 76.1584 80.9492 77.5608 77.9883 79.385C77.7344 79.5412 77.8985 79.9709 78.1953 79.8733C81.5078 78.8069 84.8985 77.0061 87.8789 75.2209C87.9649 75.1662 87.9063 75.0178 87.8047 75.0529Z" fill="#231F20"/>
<path d="M87.3594 75.4045C83.625 77.0334 79.6719 78.1428 75.9571 79.7795C75.7461 79.8733 75.9102 80.1584 76.1055 80.1233C80.0313 79.4631 83.9727 77.4319 87.3907 75.4592C87.4258 75.4397 87.3946 75.3889 87.3594 75.4045Z" fill="#231F20"/>
<path d="M82.5664 75.9396C78.1406 77.9435 73.5625 79.4162 69.0859 81.256C68.918 81.3264 68.9765 81.5607 69.1601 81.5295C73.8789 80.7521 78.5742 78.5139 82.6289 76.0412C82.6953 76.0021 82.6367 75.9084 82.5664 75.9396Z" fill="#231F20"/>
<path d="M83.3123 77.8107C80.0506 78.7482 76.4842 79.6623 73.4959 81.3029C73.2889 81.4162 73.4373 81.7092 73.6482 81.6662C76.9842 80.9787 80.285 79.3615 83.3748 77.9592C83.4646 77.9201 83.4021 77.7834 83.3123 77.8107Z" fill="#231F20"/>
<path d="M101.172 62.9279C99.7459 64.1467 98.3866 65.4474 96.9569 66.6662C96.242 67.2756 95.5116 67.8654 94.7811 68.4513C94.6209 68.5802 91.5233 70.9084 91.4881 70.549C91.4803 70.4865 91.3827 70.4631 91.3709 70.5334C91.3553 70.6076 91.3436 70.6779 91.328 70.7521C91.3202 70.7912 91.3319 70.8381 91.3709 70.8576C92.617 71.4943 94.2498 69.5529 95.1639 68.8342C97.3592 67.1037 99.5428 65.2521 101.41 63.1662C101.555 63.0021 101.336 62.7873 101.172 62.9279Z" fill="#231F20"/>
<path d="M100.906 63.8537C99.5312 64.7209 98.3593 65.9123 97.1523 66.9904C95.8241 68.1701 94.203 69.3224 93.1952 70.7951C93.1249 70.9006 93.2577 71.0138 93.3593 70.9592C94.7655 70.1896 95.914 68.8654 97.0976 67.7912C98.4257 66.5842 99.8945 65.3967 101 63.9787C101.051 63.9123 100.988 63.8029 100.906 63.8537Z" fill="#231F20"/>
<path d="M100.875 64.6779C97.9922 68.0334 94.7109 70.6232 91.1093 73.1623C91.0547 73.2014 91.1015 73.2873 91.164 73.2561C95.0664 71.3732 98.4453 68.2326 101.059 64.8186C101.137 64.7131 100.961 64.5764 100.875 64.6779Z" fill="#231F20"/>
<path d="M96.2031 68.4318C94.1797 69.9162 92.1523 71.4318 90.2812 73.1076C90.2305 73.1506 90.2969 73.2404 90.3555 73.2014C92.4219 71.7756 94.3711 70.1623 96.2891 68.5451C96.3516 68.4943 96.2695 68.385 96.2031 68.4318Z" fill="#231F20"/>
<path d="M93.7852 67.674C92.7656 68.6857 91.5899 69.5256 90.5703 70.5295C90.5274 70.5724 90.5742 70.6349 90.625 70.6271C91.0625 70.5451 91.5469 69.9943 91.8633 69.7248C92.5781 69.1193 93.2774 68.4904 93.9141 67.8029C93.9961 67.717 93.8711 67.5881 93.7852 67.674Z" fill="#231F20"/>
<path d="M93.5195 68.2678C92.6484 68.7561 91.7695 69.2365 90.8906 69.7131C90.1328 70.1233 89.2148 70.4592 88.6367 71.1076C88.5703 71.1819 88.6328 71.2912 88.7304 71.2717C89.5781 71.0803 90.3203 70.4436 91.0507 69.9865C91.8945 69.4514 92.7421 68.9201 93.5976 68.4006C93.6796 68.3498 93.6054 68.2209 93.5195 68.2678Z" fill="#231F20"/>
<path d="M38.2186 74.3966C39.9022 75.7794 41.6522 77.338 43.5507 78.4044C43.6405 78.4552 43.7303 78.338 43.66 78.2677C42.1327 76.713 40.1639 75.424 38.3983 74.1662C38.2616 74.0685 38.0897 74.2912 38.2186 74.3966Z" fill="#231F20"/>
<path d="M39.5585 72.6389C40.9687 74.2678 42.5156 76.0334 44.3281 77.2287C44.414 77.2834 44.5039 77.1584 44.4335 77.0881C42.9062 75.51 41.1757 74.1389 39.6718 72.5217C39.6015 72.4436 39.4882 72.5608 39.5585 72.6389Z" fill="#231F20"/>
<path d="M41.1328 72.6701C42.457 73.7756 43.7461 75.0099 45.1992 75.9396C45.2969 75.9982 45.3945 75.8615 45.3203 75.7834C44.1445 74.5412 42.7031 73.5099 41.3789 72.424C41.207 72.2834 40.9609 72.5256 41.1328 72.6701Z" fill="#231F20"/>
<path d="M41.9453 71.4592C43.1758 72.6428 44.3633 73.9279 45.6953 74.9943C45.7695 75.0529 45.8594 74.967 45.8008 74.8928C44.6836 73.5998 43.3555 72.4631 42.1289 71.2756C42.0117 71.1623 41.8281 71.3459 41.9453 71.4592Z" fill="#231F20"/>
<path d="M43.9491 71.8771C44.6249 72.674 45.2655 73.5412 46.0116 74.2756C46.039 74.3029 46.0936 74.2638 46.0702 74.2287C45.4569 73.3771 44.6952 72.6076 44.0116 71.8146C43.9765 71.7717 43.914 71.8342 43.9491 71.8771Z" fill="#231F20"/>
<path d="M46.0781 73.0217C46.1016 73.0217 46.1016 72.9787 46.0781 72.9787C46.0508 72.9787 46.0508 73.0217 46.0781 73.0217Z" fill="#231F20"/>
<path d="M45.2656 72.5998C46.2344 72.5685 47.1211 73.0216 47.6602 73.8302C47.6719 73.8498 47.6953 73.8341 47.6875 73.8146C47.1445 72.9943 46.25 72.5294 45.2656 72.5607C45.2422 72.5646 45.2422 72.5998 45.2656 72.5998Z" fill="#231F20"/>
<path d="M51.2772 71.0138C52.7381 72.1427 54.1912 73.299 55.7654 74.2638C55.8475 74.3146 55.9373 74.1974 55.867 74.1349C54.4998 72.8927 52.9881 71.8185 51.4959 70.7326C51.3318 70.6115 51.117 70.8888 51.2772 71.0138Z" fill="#231F20"/>
<path d="M52.5234 70.5842C52.9922 70.967 53.4688 71.3342 53.9531 71.6936C54.5508 72.1428 55.1406 72.674 55.8047 73.0178C55.9297 73.0803 56.0781 72.9123 55.9648 72.8108C55.7461 72.6154 55.5273 72.424 55.3164 72.2209C55.2852 72.1897 55.2227 72.2326 55.2539 72.2717C55.4258 72.5022 55.5898 72.7326 55.7578 72.9709C55.8242 72.9162 55.8945 72.8615 55.9648 72.8108C55.543 72.3811 55.0117 72.0568 54.5273 71.7053C53.9141 71.2561 53.3008 70.8147 52.668 70.3928C52.5547 70.3186 52.418 70.4943 52.5234 70.5842Z" fill="#231F20"/>
<path d="M53.7421 70.1779C54.6406 70.9397 55.5195 71.7717 56.4999 72.424C56.6913 72.5529 56.8437 72.2834 56.7265 72.1272C56.5468 71.9006 56.3984 71.6467 56.246 71.4006C56.2148 71.3498 56.1288 71.3811 56.1484 71.4397C56.2499 71.7287 56.3476 72.0139 56.414 72.3108C56.5156 72.2483 56.621 72.1897 56.7265 72.1272C55.8671 71.3264 54.8554 70.6584 53.9101 69.9592C53.7851 69.8654 53.621 70.0764 53.7421 70.1779Z" fill="#231F20"/>
<path d="M54.5469 70.2013C55.0781 70.4513 55.6133 70.6974 56.1367 70.9553C56.5508 71.1584 56.957 71.4162 57.414 71.4748C57.5 71.4826 57.5429 71.3576 57.4844 71.3068C57.1914 71.0412 56.8125 70.924 56.4531 70.7717C55.8554 70.5217 55.2617 70.2599 54.6679 69.9982C54.5312 69.9396 54.4101 70.1388 54.5469 70.2013Z" fill="#231F20"/>
<path d="M56.504 69.8615C57.168 70.6623 58.0235 71.4826 59.0274 71.8224C59.1094 71.8498 59.1407 71.7404 59.0821 71.6935C58.2383 71.0412 57.3985 70.4865 56.7149 69.6506C56.5899 69.5021 56.3829 69.717 56.504 69.8615Z" fill="#231F20"/>
<path d="M57.4961 69.674C58.0703 70.2834 58.6563 71.0178 59.3633 71.4787C59.4102 71.51 59.4805 71.4436 59.4453 71.3967C58.9492 70.7131 58.1875 70.1623 57.5508 69.6154C57.5117 69.5803 57.457 69.635 57.4961 69.674Z" fill="#231F20"/>
<path d="M58.6209 69.7717C59.1405 70.3693 59.8279 70.9162 60.6131 71.092C60.6717 71.1076 60.7147 71.0217 60.6561 70.9943C59.9295 70.6389 59.2694 70.2873 58.7069 69.6857C58.6522 69.6272 58.5701 69.7131 58.6209 69.7717Z" fill="#231F20"/>
<path d="M59.7891 69.8146C60.1953 70.217 60.6094 70.6115 61.0273 71.0021C61.0664 71.0373 61.1172 70.9826 61.082 70.9474C60.6914 70.5295 60.2969 70.1154 59.8945 69.7052C59.8281 69.6388 59.7188 69.7443 59.7891 69.8146Z" fill="#231F20"/>
<path d="M64.789 70.049C66.4765 71.4474 68.1172 73.049 69.9922 74.1974C70.082 74.2521 70.1797 74.1232 70.1015 74.0529C68.5312 72.5216 66.5664 71.3263 64.8008 70.0373C64.789 70.0295 64.7812 70.0451 64.789 70.049Z" fill="#231F20"/>
<path d="M65.1014 69.3615C65.9608 69.9631 66.8163 70.5764 67.6171 71.256C68.4257 71.9435 69.0975 72.7795 69.8983 73.467C69.9608 73.5178 70.0585 73.4514 70.0116 73.3771C68.9686 71.6467 66.9374 70.1701 65.16 69.2639C65.0936 69.2287 65.0428 69.3185 65.1014 69.3615Z" fill="#231F20"/>
<path d="M67.0781 69.8068C67.6445 70.3068 68.2148 70.8107 68.7851 71.3146C69.289 71.7599 69.7734 72.299 70.3593 72.6349C70.4374 72.6818 70.5585 72.5841 70.496 72.4982C70.0937 71.9591 69.5038 71.5412 68.9999 71.0959C68.4335 70.592 67.8632 70.0881 67.2968 69.5841C67.1484 69.4513 66.9296 69.674 67.0781 69.8068Z" fill="#231F20"/>
<path d="M67.9648 69.3225C69.0937 70.4436 70.2578 71.7248 71.582 72.6193C71.6523 72.6662 71.7109 72.5686 71.6641 72.51C70.6641 71.2756 69.293 70.2287 68.082 69.2053C68.0039 69.1389 67.8906 69.2443 67.9648 69.3225Z" fill="#231F20"/>
<path d="M69.4413 69.8772C69.8358 70.299 70.2225 70.717 70.6327 71.1193C71.0311 71.5139 71.4335 71.9982 71.9257 72.2834C71.9921 72.3225 72.0741 72.2443 72.0311 72.174C71.7694 71.7404 71.3397 71.3967 70.9725 71.0451C70.5116 70.6076 70.0389 70.1818 69.5585 69.76C69.4803 69.6936 69.371 69.799 69.4413 69.8772Z" fill="#231F20"/>
<path d="M70.2578 69.8889C71.0234 70.5646 71.8007 71.4279 72.7226 71.8928C72.7773 71.9201 72.8242 71.8537 72.789 71.8068C72.1445 71.01 71.1289 70.424 70.3164 69.8146C70.2734 69.7834 70.2187 69.8537 70.2578 69.8889Z" fill="#231F20"/>
<path d="M71.1873 69.7365C71.6288 70.1115 72.0663 70.4865 72.5077 70.8615C72.9413 71.2326 73.3944 71.6818 73.9061 71.9357C73.9998 71.9787 74.0741 71.8771 74.0116 71.8029C73.6913 71.4084 73.2225 71.1154 72.8202 70.8107C72.3045 70.4123 71.7811 70.0334 71.2577 69.6467C71.2069 69.6076 71.1405 69.6935 71.1873 69.7365Z" fill="#231F20"/>
<path d="M71.9218 69.4201C72.2538 69.7639 72.5858 70.1076 72.9179 70.4514C73.2343 70.7795 73.5663 71.2287 73.9765 71.4436C74.039 71.4787 74.1093 71.4084 74.0741 71.3459C73.8827 70.9787 73.4921 70.6818 73.1952 70.3967C72.8163 70.0295 72.4335 69.6584 72.0507 69.2912C71.9687 69.2092 71.8398 69.3342 71.9218 69.4201Z" fill="#231F20"/>
<path d="M72.3749 69.7951C72.9452 70.092 73.4843 70.4318 73.996 70.8302C74.4023 71.1506 74.7538 71.5568 75.1796 71.8498C75.2226 71.881 75.2851 71.8224 75.2538 71.7756C74.6249 70.8654 73.371 70.2131 72.4023 69.7482C72.371 69.7326 72.3398 69.7795 72.3749 69.7951Z" fill="#231F20"/>
<path d="M73.5508 69.8186C74.3282 70.6467 75.086 71.5412 75.9766 72.2482C76.0625 72.3146 76.1602 72.217 76.0938 72.1311C75.3868 71.2404 74.4922 70.4826 73.6641 69.7014C73.5899 69.6311 73.4766 69.7404 73.5508 69.8186Z" fill="#231F20"/>
<path d="M75.1015 70.6974C76.3008 71.799 77.4765 72.9201 78.7422 73.9474C78.7929 73.9865 78.8594 73.924 78.8125 73.8732C77.6836 72.7053 76.4687 71.6271 75.2734 70.5295C75.1562 70.424 74.9883 70.592 75.1015 70.6974Z" fill="#231F20"/>
<path d="M74.3397 70.256C76.1444 71.7951 78.0389 73.4162 80.0506 74.6779C80.1209 74.717 80.1951 74.6193 80.1365 74.5685C78.3983 72.9396 76.3553 71.5295 74.4022 70.174C74.3553 70.1428 74.2967 70.217 74.3397 70.256Z" fill="#231F20"/>
<path d="M75.1485 71.0607C76.4844 72.1115 77.8126 73.3615 79.2891 74.2131C79.379 74.2638 79.4688 74.1467 79.3985 74.0724C78.1797 72.8771 76.6251 71.9396 75.2501 70.9318C75.1719 70.8771 75.0743 71.0021 75.1485 71.0607Z" fill="#231F20"/>
<path d="M73.9296 70.6545C75.2421 71.7795 76.539 72.9162 77.871 74.0217C77.9374 73.9318 78.0077 73.8459 78.0741 73.7561C77.6366 73.5451 77.2382 73.2756 76.828 73.0178C76.7851 72.9904 76.7343 73.0568 76.7734 73.0881C77.1484 73.3889 77.5312 73.6779 77.871 74.0217C78.0234 74.1779 78.2734 73.924 78.1093 73.7834C76.7851 72.6662 75.4296 71.5881 74.0898 70.4943C73.9765 70.4006 73.8163 70.5568 73.9296 70.6545Z" fill="#231F20"/>
<path d="M73.5741 71.0295C74.3515 71.4162 75.0663 71.8772 75.7382 72.4318C76.414 72.9904 76.9023 73.7404 77.5624 74.299C77.6405 74.3615 77.7382 74.2834 77.6991 74.1936C77.0312 72.6857 75.0898 71.5373 73.6562 70.8889C73.5624 70.8459 73.4765 70.9826 73.5741 71.0295Z" fill="#231F20"/>
<path d="M74.2812 71.9045C75.1211 72.9318 76.082 73.9826 77.2343 74.6545C77.3242 74.7053 77.4257 74.5803 77.3476 74.51C76.3515 73.6076 75.289 72.8107 74.3593 71.8303C74.3125 71.7795 74.2383 71.8537 74.2812 71.9045Z" fill="#231F20"/>
<path d="M75.9764 69.4084C76.5584 69.9084 77.1522 70.3889 77.7537 70.8693C78.3475 71.342 78.9608 71.9397 79.6639 72.2365C79.7928 72.2912 79.8943 72.1584 79.8084 72.049C79.3943 71.5217 78.7615 71.1272 78.2186 70.7326C77.5233 70.2248 76.8279 69.717 76.1131 69.2326C76.0076 69.1623 75.8826 69.3264 75.9764 69.4084Z" fill="#231F20"/>
<path d="M76.4687 69.7365C77.1054 70.4513 77.7265 71.1857 78.3984 71.8654C78.5663 72.0373 78.8124 71.7834 78.6601 71.6076C77.8359 70.6545 76.8671 70.0959 75.7656 69.5334C75.6132 69.4553 75.4921 69.6662 75.6328 69.7638C76.2343 70.1818 76.8437 70.5881 77.4335 71.0178C78.0156 71.4435 78.5429 71.9904 79.1679 72.3459C79.2734 72.4045 79.4179 72.2795 79.3437 72.174C78.5351 71.0412 76.9921 70.131 75.7656 69.5334C75.7304 69.6154 75.6953 69.6974 75.664 69.7756C76.7773 70.0568 77.7343 70.9045 78.371 71.8303C78.4648 71.7521 78.5624 71.6818 78.6601 71.6076C78.0078 70.9045 77.3007 70.256 76.6132 69.592C76.5195 69.4943 76.3788 69.6388 76.4687 69.7365Z" fill="#231F20"/>
<path d="M74.8202 69.3381C76.453 70.6818 78.0546 72.0763 79.7773 73.3068C79.8476 73.3576 79.9296 73.2443 79.8671 73.1857C78.3202 71.756 76.6366 70.4826 74.996 69.1623C74.871 69.0646 74.6952 69.2365 74.8202 69.3381Z" fill="#231F20"/>
<path d="M55.8203 63.6975C54.8008 64.76 53.918 65.9201 53.0117 67.0803C52.3086 67.9826 51.4102 68.885 50.9766 69.9475C50.9375 70.0451 51.0742 70.1506 51.1602 70.0881C52.0781 69.385 52.6992 68.2912 53.3946 67.3732C54.2852 66.2014 55.168 65.0412 55.9258 63.7795C55.9649 63.7131 55.875 63.6428 55.8203 63.6975Z" fill="#231F20"/>
<path d="M55.9805 63.1545C55.4375 63.9631 54.8946 64.7717 54.3516 65.5763C53.8164 66.3693 53.1016 67.174 52.8282 68.0998C52.793 68.2209 52.9375 68.2834 53.0235 68.2131C53.6914 67.674 54.1055 66.842 54.5782 66.131C55.1797 65.2209 55.7852 64.3068 56.3907 63.3967C56.5625 63.1388 56.1524 62.9045 55.9805 63.1545Z" fill="#231F20"/>
<path d="M56.6054 63.2873C55.1718 64.6349 53.1952 66.8107 53.0273 68.8693C53.0155 68.9826 53.1679 68.9943 53.2226 68.9201C53.7812 68.1545 54.0937 67.1545 54.5585 66.3185C55.1483 65.256 55.9062 64.299 56.7304 63.4123C56.8085 63.3263 56.6874 63.2092 56.6054 63.2873Z" fill="#231F20"/>
<path d="M57.328 63.6076C55.4881 65.5178 53.9022 67.6467 52.6444 69.9865C52.5116 70.2326 52.8084 70.4357 53.0116 70.2717C53.8631 69.5725 54.5194 68.7365 55.0194 67.76C55.0467 67.7092 54.9725 67.6662 54.9413 67.7131C54.3475 68.6584 53.6756 69.3147 52.7264 69.9045C52.8358 70.01 52.9413 70.1154 53.0467 70.2248C54.3827 67.9553 55.8202 65.7717 57.4178 63.6779C57.4569 63.6271 57.3709 63.5646 57.328 63.6076Z" fill="#231F20"/>
<path d="M56.9218 65.2209C55.8476 66.2756 54.4296 67.7131 54.2265 69.2639C54.207 69.3889 54.3945 69.4514 54.4726 69.3654C54.9648 68.8264 55.2578 68.174 55.6328 67.549C56.0781 66.8068 56.6171 66.1389 57.2109 65.5139C57.3945 65.3225 57.1093 65.0373 56.9218 65.2209Z" fill="#231F20"/>
<path d="M57.3047 65.1975C56.0703 66.4865 55.1914 67.967 54.7578 69.7092C54.6758 70.0451 55.1758 70.2834 55.3359 69.9514C55.625 69.3498 55.957 68.7678 56.2734 68.1818C56.3203 68.0959 56.1992 67.9904 56.1289 68.0725C55.7031 68.5725 55.2891 69.0881 54.8398 69.5686C55.0156 69.6701 55.1914 69.7717 55.3672 69.8771C55.8203 68.2639 56.5312 66.7287 57.5586 65.3928C57.6719 65.2482 57.4297 65.0686 57.3047 65.1975Z" fill="#231F20"/>
<path d="M58.0467 66.0178C57.7499 66.4045 57.453 66.7873 57.1561 67.174C56.8788 67.5373 56.41 67.9592 56.328 68.4162C56.3006 68.5646 56.4374 68.674 56.5741 68.6076C56.9725 68.4123 57.2108 67.9123 57.4647 67.5646C57.7889 67.1271 58.1131 66.6857 58.4374 66.2482C58.6131 66.0099 58.2186 65.7873 58.0467 66.0178Z" fill="#231F20"/>
<path d="M62.6797 59.631C61.5703 60.4162 60.4492 61.174 59.4258 62.0724C59.3711 62.1193 59.4453 62.217 59.5078 62.174C60.6524 61.4396 61.6914 60.5724 62.75 59.7248C62.8047 59.6818 62.7344 59.592 62.6797 59.631Z" fill="#231F20"/>
<path d="M63.4766 58.4162C62.5664 59.2638 61.6367 60.3888 61.3477 61.6271C61.3321 61.6974 61.4258 61.7365 61.4649 61.674C62.1289 60.5529 62.6446 59.463 63.5469 58.4865C63.5899 58.4396 63.5235 58.3693 63.4766 58.4162Z" fill="#231F20"/>
<path d="M64.6445 58.7717C63.7148 59.4944 62.6172 60.5061 62.2929 61.6858C62.2812 61.7326 62.3437 61.7756 62.3789 61.7365C62.7422 61.3108 63.0273 60.799 63.3554 60.3459C63.7539 59.7951 64.2148 59.299 64.7187 58.842C64.7656 58.799 64.6953 58.7326 64.6445 58.7717Z" fill="#231F20"/>
<path d="M65.4375 59.1623C64.4063 60.0725 63.5274 61.135 62.8672 62.342C62.7696 62.5217 62.9922 62.6857 63.1407 62.5529C63.5079 62.2287 63.8907 61.924 64.25 61.5959C64.3008 61.549 64.2344 61.467 64.1758 61.4982C63.754 61.7482 63.3477 62.0217 62.9297 62.2795C63.0079 62.3576 63.0899 62.4396 63.168 62.5178C63.8008 61.3146 64.5899 60.2404 65.5782 59.3029C65.6719 59.2131 65.5313 59.0803 65.4375 59.1623Z" fill="#231F20"/>
<path d="M67.1602 58.8615C66.0195 59.3185 64.5781 60.674 64.7539 62.0255C64.7617 62.1076 64.875 62.1584 64.9219 62.0724C65.2188 61.5412 65.3633 60.9552 65.6836 60.4357C66.0547 59.8224 66.6133 59.3654 67.2149 58.9943C67.2813 58.9552 67.2383 58.8302 67.1602 58.8615Z" fill="#231F20"/>
<path d="M68.8086 58.8615C67.8086 59.8811 66.8282 60.9592 65.8907 62.0373C65.7188 62.2326 65.9727 62.4748 66.168 62.3147C66.4727 62.0725 66.793 61.8537 67.1172 61.635C67.1797 61.592 67.125 61.4983 67.0547 61.5295C66.6993 61.6936 66.3438 61.8537 65.9766 61.9865C66.043 62.0959 66.1055 62.2053 66.168 62.3147C67.1758 61.299 68.1446 60.1584 68.9727 58.9904C69.043 58.8889 68.8907 58.7795 68.8086 58.8615Z" fill="#231F20"/>
<path d="M69.4687 59.1388C68.4804 60.1857 67.4296 61.217 66.621 62.4084C66.5468 62.5177 66.703 62.6115 66.789 62.5373C67.8827 61.6193 68.789 60.4748 69.7226 59.3927C69.871 59.2209 69.6288 58.967 69.4687 59.1388Z" fill="#231F20"/>
<path d="M24.1172 54.8068C24.3164 55.7209 24.4102 56.7092 24.7344 57.592C24.7578 57.6506 24.8594 57.6467 24.8516 57.5764C24.7617 56.635 24.4141 55.7014 24.1914 54.7834C24.1797 54.7365 24.1055 54.756 24.1172 54.8068Z" fill="#231F20"/>
<path d="M24.0936 53.1936C24.3592 54.6389 24.5232 56.2404 25.0467 57.6154C25.0857 57.717 25.2615 57.7131 25.2498 57.5881C25.1404 56.1076 24.6092 54.5842 24.2342 53.1545C24.2107 53.0608 24.0779 53.0998 24.0936 53.1936Z" fill="#231F20"/>
<path d="M24.9687 52.7756C25.332 54.3889 25.7109 56.0998 26.3398 57.6311C26.3867 57.7522 26.6054 57.7522 26.5859 57.5998C26.4062 56.1115 26.2577 54.592 26.3515 53.092C26.2695 53.1154 26.1874 53.135 26.1054 53.1584C26.4452 53.6272 26.6835 54.1115 26.8437 54.674C27.0038 55.2365 26.8906 55.8147 27.0312 56.3732C27.0546 56.4592 27.1796 56.4787 27.2226 56.4006C27.8007 55.3264 27.0234 53.8186 26.3124 52.9982C26.2187 52.8889 26.0742 53.01 26.0937 53.1272C26.3437 54.5959 26.3554 56.1115 26.332 57.5998C26.4179 57.5881 26.4999 57.5764 26.582 57.5647C26.2851 55.9357 25.6796 54.2873 25.121 52.7326C25.0859 52.6389 24.9452 52.674 24.9687 52.7756Z" fill="#231F20"/>
</svg>
